<?xml version="1.0" encoding="utf-8"?>
<svg viewBox="-91.883 -9.994 243.766 79.989" xmlns="http://www.w3.org/2000/svg">
  <path d="M -63.981940551757816 55.176001251220704 Q -68.9739405517578 55.176001251220704 -68.9739405517578 50.8880012512207 Q -68.9739405517578 49.4800012512207 -68.55794055175781 47.6560012512207 Q -68.14194055175781 45.8320012512207 -67.37394055175781 42.9520012512207 Q -66.47794055175781 39.944001251220705 -66.02994055175782 37.8320012512207 Q -65.58194055175781 35.7200012512207 -65.58194055175781 34.05600125122071 Q -65.58194055175781 29.704001251220703 -69.42194055175781 29.704001251220703 Q -70.44594055175781 29.704001251220703 -71.53394055175781 29.960001251220703 L -76.65394055175781 54.0880012512207 L -85.86994055175781 54.0880012512207 L -77.16594055175781 13.384001251220702 L -67.6939405517578 12.104001251220701 L -70.82994055175782 26.888001251220704 L -70.31794055175781 26.888001251220704 Q -67.82194055175782 26.888001251220704 -65.70994055175781 25.160001251220702 Q -63.597940551757816 23.4320012512207 -62.41394055175781 20.840001251220706 Q -61.22994055175781 18.2480012512207 -61.22994055175781 15.752001251220705 Q -61.22994055175781 12.808001251220702 -62.98994055175781 10.920001251220704 Q -64.74994055175782 9.032001251220706 -68.26994055175781 9.032001251220706 Q -73.45394055175781 9.032001251220706 -77.3579405517578 10.8880012512207 Q -81.26194055175782 12.744001251220702 -83.40594055175781 16.264001251220705 Q -85.54994055175781 19.7840012512207 -85.54994055175781 24.584001251220702 Q -85.54994055175781 26.952001251220704 -85.1019405517578 27.8800012512207 Q -84.65394055175781 28.808001251220702 -84.65394055175781 28.936001251220702 Q -88.10994055175782 28.936001251220702 -89.80594055175781 27.4960012512207 Q -91.50194055175781 26.056001251220703 -91.50194055175781 22.728001251220704 Q -91.50194055175781 18.6320012512207 -88.14194055175781 14.7600012512207 Q -84.78194055175781 10.8880012512207 -79.53394055175781 8.488001251220702 Q -74.28594055175782 6.088001251220703 -69.03794055175781 6.088001251220703 Q -64.23794055175782 6.088001251220703 -60.97394055175781 7.496001251220704 Q -57.70994055175781 8.904001251220706 -56.10994055175781 11.240001251220704 Q -54.509940551757815 13.576001251220703 -54.509940551757815 16.328001251220705 Q -54.509940551757815 19.3360012512207 -56.36594055175781 22.344001251220703 Q -58.22194055175781 25.352001251220702 -61.421940551757814 27.272001251220704 Q -58.98994055175781 27.9760012512207 -57.997940551757814 29.608001251220703 Q -57.00594055175781 31.240001251220704 -57.00594055175781 33.672001251220706 Q -57.00594055175781 35.5280012512207 -57.45394055175781 37.6080012512207 Q -57.90194055175781 39.688001251220705 -58.73394055175781 42.7600012512207 Q -59.24594055175781 44.7440012512207 -59.69394055175781 46.664001251220704 Q -60.14194055175781 48.584001251220705 -60.14194055175781 49.8640012512207 Q -60.14194055175781 51.3360012512207 -59.46994055175781 52.4880012512207 Q -58.79794055175781 53.6400012512207 -57.64594055175781 54.0880012512207 Q -61.549940551757814 55.176001251220704 -63.981940551757816 55.176001251220704 Z M -44.07878289794922 54.3440012512207 Q -48.814782897949215 54.3440012512207 -51.56678289794922 51.9120012512207 Q -54.31878289794922 49.4800012512207 -54.31878289794922 44.2320012512207 Q -54.31878289794922 39.880001251220705 -52.52678289794922 34.56800125122071 Q -50.734782897949216 29.256001251220702 -46.76678289794922 25.384001251220702 Q -42.798782897949216 21.512001251220703 -36.78278289794922 21.512001251220703 Q -28.590782897949218 21.512001251220703 -28.590782897949218 31.7520012512207 L -28.590782897949218 31.8160012512207 Q -28.398782897949218 31.8800012512207 -27.886782897949217 31.8800012512207 Q -25.77478289794922 31.8800012512207 -23.022782897949217 30.760001251220704 Q -20.270782897949218 29.640001251220703 -18.030782897949216 28.0400012512207 L -17.454782897949215 29.768001251220703 Q -19.310782897949217 31.7520012512207 -22.28678289794922 33.1280012512207 Q -25.26278289794922 34.5040012512207 -28.782782897949218 35.08000125122071 Q -29.29478289794922 40.904001251220706 -31.406782897949217 45.2560012512207 Q -33.51878289794922 49.6080012512207 -36.84678289794922 51.9760012512207 Q -40.174782897949214 54.3440012512207 -44.07878289794922 54.3440012512207 Z M -41.51878289794922 48.584001251220705 Q -39.98278289794922 48.584001251220705 -38.44678289794922 46.8240012512207 Q -36.91078289794922 45.0640012512207 -35.75878289794922 42.0240012512207 Q -34.606782897949216 38.984001251220704 -34.094782897949216 35.2720012512207 Q -35.82278289794922 34.8880012512207 -35.82278289794922 32.5840012512207 Q -35.82278289794922 29.960001251220703 -33.838782897949216 29.128001251220702 Q -33.966782897949216 27.016001251220704 -34.478782897949216 26.216001251220703 Q -34.99078289794922 25.416001251220703 -36.27078289794922 25.416001251220703 Q -38.38278289794922 25.416001251220703 -40.36678289794922 28.4880012512207 Q -42.350782897949216 31.560001251220704 -43.56678289794922 35.8480012512207 Q -44.78278289794922 40.136001251220705 -44.78278289794922 43.4000012512207 Q -44.78278289794922 46.4720012512207 -44.07878289794922 47.5280012512207 Q -43.37478289794922 48.584001251220705 -41.51878289794922 48.584001251220705 Z M -16.17540783691406 54.4720012512207 Q -20.911407836914062 54.4720012512207 -23.53540783691406 52.008001251220705 Q -26.159407836914063 49.544001251220706 -26.159407836914063 44.2960012512207 Q -26.159407836914063 39.880001251220705 -24.39940783691406 34.56800125122071 Q -22.639407836914064 29.256001251220702 -18.76740783691406 25.384001251220702 Q -14.895407836914062 21.512001251220703 -8.943407836914062 21.512001251220703 Q -5.103407836914062 21.512001251220703 -3.471407836914061 23.176001251220704 Q -1.839407836914063 24.840001251220702 -1.839407836914063 27.400001251220704 Q -1.839407836914063 29.640001251220703 -2.799407836914064 30.856001251220704 Q -3.759407836914061 32.0720012512207 -5.231407836914062 32.0720012512207 Q -6.319407836914063 32.0720012512207 -7.471407836914061 31.304001251220704 Q -6.703407836914064 29.192001251220702 -6.703407836914064 27.5280012512207 Q -6.703407836914064 26.312001251220703 -7.151407836914061 25.608001251220703 Q -7.599407836914061 24.904001251220702 -8.495407836914062 24.904001251220702 Q -10.415407836914062 24.904001251220702 -12.335407836914062 28.0400012512207 Q -14.255407836914062 31.176001251220704 -15.471407836914063 35.6560012512207 Q -16.687407836914062 40.136001251220705 -16.687407836914062 43.7200012512207 Q -16.687407836914062 46.856001251220704 -15.599407836914063 47.9760012512207 Q -14.511407836914062 49.096001251220706 -12.079407836914061 49.096001251220706 Q -8.623407836914062 49.096001251220706 -6.159407836914063 47.496001251220704 Q -3.695407836914061 45.8960012512207 -0.751407836914062 42.6320012512207 L 1.4245921630859364 42.6320012512207 Q -5.679407836914063 54.4720012512207 -16.17540783691406 54.4720012512207 Z M 23.308325816631317 54.4720012512207 Q 19.340325816631317 54.4720012512207 17.29232581663132 52.584001251220705 Q 15.244325816631317 50.6960012512207 15.244325816631317 47.176001251220704 Q 15.244325816631317 45.6400012512207 15.628325816631317 43.8480012512207 L 16.140325816631318 41.3520012512207 Q 16.396325816631318 40.264001251220705 16.396325816631318 38.984001251220704 Q 16.396325816631318 35.9120012512207 14.092325816631318 35.9120012512207 Q 13.068325816631317 35.9120012512207 11.948325816631318 36.4880012512207 Q 10.828325816631317 37.0640012512207 9.356325816631317 38.2800012512207 L 6.028325816631317 54.0880012512207 L -3.187674183368683 54.0880012512207 L 6.092325816631317 10.5680012512207 L 15.564325816631317 9.288001251220699 L 10.764325816631317 31.8160012512207 L 23.116325816631317 22.088001251220703 L 29.45232581663132 22.088001251220703 L 16.65232581663132 30.984001251220704 Q 17.61232581663132 30.728001251220704 18.764325816631317 30.728001251220704 Q 22.220325816631316 30.728001251220704 24.012325816631318 32.8400012512207 Q 25.80432581663132 34.95200125122071 25.80432581663132 38.2160012512207 Q 25.80432581663132 39.560001251220704 25.54832581663132 40.648001251220705 L 24.84432581663132 43.8480012512207 Q 24.52432581663132 45.0000012512207 24.52432581663132 45.8960012512207 Q 24.52432581663132 48.264001251220705 27.020325816631317 48.264001251220705 Q 28.94032581663132 48.264001251220705 30.092325816631316 46.8880012512207 Q 31.244325816631317 45.5120012512207 32.39632581663132 42.6320012512207 L 35.08432581663132 42.6320012512207 Q 31.116325816631317 54.4720012512207 23.308325816631317 54.4720012512207 Z M 39.69068002319336 54.4720012512207 Q 36.61868002319336 54.4720012512207 34.50668002319336 53.288001251220706 Q 32.39468002319336 52.1040012512207 31.37068002319336 50.2160012512207 Q 30.346680023193358 48.328001251220705 30.346680023193358 46.2800012512207 Q 30.346680023193358 44.1680012512207 31.33868002319336 42.600001251220704 Q 32.33068002319336 41.032001251220706 33.73868002319336 40.328001251220705 Q 36.23468002319336 35.8480012512207 38.09068002319336 31.272001251220704 Q 39.94668002319336 26.696001251220704 41.61068002319336 21.384001251220702 L 51.08268002319336 20.1040012512207 Q 51.402680023193355 28.2960012512207 52.170680023193356 37.8320012512207 Q 52.49068002319336 41.672001251220706 52.49068002319336 43.4000012512207 Q 52.49068002319336 44.8720012512207 52.23468002319336 45.8320012512207 Q 55.24268002319336 44.1040012512207 56.84268002319336 42.6320012512207 L 59.530680023193355 42.6320012512207 Q 55.43468002319336 47.368001251220704 49.73868002319336 50.6320012512207 Q 47.88268002319336 52.6160012512207 45.16268002319336 53.544001251220706 Q 42.44268002319336 54.4720012512207 39.69068002319336 54.4720012512207 Z M 37.64268002319336 49.416001251220706 Q 40.01068002319336 49.416001251220706 41.61068002319336 48.008001251220705 Q 43.21068002319336 46.600001251220704 43.21068002319336 43.4640012512207 Q 43.21068002319336 41.544001251220706 42.82668002319336 38.0880012512207 Q 42.18668002319336 30.792001251220704 41.99468002319336 28.2960012512207 Q 40.45868002319336 33.3520012512207 36.810680023193356 40.392001251220705 Q 38.28268002319336 41.160001251220706 38.28268002319336 42.6320012512207 Q 38.28268002319336 43.8480012512207 37.48268002319336 44.8080012512207 Q 36.682680023193356 45.7680012512207 35.46668002319336 45.7680012512207 Q 34.12268002319336 45.7680012512207 33.73868002319336 44.9360012512207 Q 33.73868002319336 47.240001251220704 34.66668002319336 48.328001251220705 Q 35.59468002319336 49.416001251220706 37.64268002319336 49.416001251220706 Z M 63.17740396118164 54.4720012512207 Q 60.10540396118164 54.4720012512207 58.21740396118164 52.5520012512207 Q 56.32940396118164 50.6320012512207 56.32940396118164 46.792001251220704 Q 56.32940396118164 45.1920012512207 56.84140396118164 42.6320012512207 L 60.681403961181644 24.648001251220702 L 58.56940396118164 24.648001251220702 L 59.08140396118164 22.088001251220703 L 61.193403961181644 22.088001251220703 L 63.11340396118164 13.256001251220702 L 72.58540396118164 11.976001251220701 L 70.40940396118164 22.088001251220703 L 74.24940396118164 22.088001251220703 L 73.73740396118164 24.648001251220702 L 69.89740396118164 24.648001251220702 L 65.80140396118165 43.8480012512207 Q 65.54540396118165 44.8080012512207 65.54540396118165 45.8960012512207 Q 65.54540396118165 47.176001251220704 66.15340396118164 47.7200012512207 Q 66.76140396118164 48.264001251220705 68.16940396118164 48.264001251220705 Q 70.02540396118164 48.264001251220705 71.62540396118165 46.6960012512207 Q 73.22540396118164 45.1280012512207 73.92940396118163 42.6320012512207 L 76.61740396118164 42.6320012512207 Q 74.24940396118164 49.544001251220706 70.53740396118164 52.008001251220705 Q 66.82540396118164 54.4720012512207 63.17740396118164 54.4720012512207 Z M 81.60832946777344 54.4720012512207 Q 77.96032946777343 54.4720012512207 75.52832946777343 51.9760012512207 Q 73.09632946777344 49.4800012512207 73.09632946777344 44.1680012512207 Q 73.09632946777344 39.432001251220704 74.98432946777343 34.2160012512207 Q 76.87232946777344 29.000001251220702 80.61632946777344 25.384001251220702 Q 84.36032946777344 21.768001251220703 89.54432946777344 21.768001251220703 Q 92.16832946777345 21.768001251220703 93.44832946777343 22.664001251220704 Q 94.72832946777343 23.5600012512207 94.72832946777343 25.032001251220702 L 94.72832946777343 25.480001251220703 L 95.43232946777344 22.088001251220703 L 104.64832946777344 22.088001251220703 L 100.04032946777343 43.8480012512207 Q 99.78432946777343 44.8080012512207 99.78432946777343 45.8960012512207 Q 99.78432946777343 48.648001251220705 102.40832946777344 48.648001251220705 Q 104.20032946777344 48.648001251220705 105.51232946777344 46.984001251220704 Q 106.82432946777344 45.3200012512207 107.59232946777344 42.6320012512207 L 110.28032946777344 42.6320012512207 Q 107.91232946777345 49.544001251220706 104.42432946777345 52.008001251220705 Q 100.93632946777343 54.4720012512207 97.41632946777344 54.4720012512207 Q 94.72832946777343 54.4720012512207 93.09632946777344 52.968001251220706 Q 91.46432946777344 51.4640012512207 91.14432946777345 48.584001251220705 Q 89.28832946777344 51.2080012512207 87.01632946777343 52.840001251220706 Q 84.74432946777344 54.4720012512207 81.60832946777344 54.4720012512207 Z M 85.76832946777344 48.264001251220705 Q 87.36832946777344 48.264001251220705 88.93632946777343 46.7600012512207 Q 90.50432946777343 45.2560012512207 91.08032946777344 42.6320012512207 L 94.15232946777344 28.1680012512207 Q 94.15232946777344 27.336001251220704 93.51232946777344 26.536001251220704 Q 92.87232946777344 25.736001251220703 91.52832946777343 25.736001251220703 Q 88.96832946777344 25.736001251220703 86.92032946777344 28.712001251220702 Q 84.87232946777344 31.6880012512207 83.72032946777344 35.880001251220705 Q 82.56832946777344 40.072001251220705 82.56832946777344 43.2720012512207 Q 82.56832946777344 46.4720012512207 83.49632946777344 47.368001251220704 Q 84.42432946777343 48.264001251220705 85.76832946777344 48.264001251220705 Z M 111.94633746337891 22.088001251220703 L 121.1623374633789 22.088001251220703 L 120.33033746337891 26.056001251220703 Q 122.50633746337891 24.1360012512207 124.2663374633789 23.112001251220704 Q 126.02633746337891 22.088001251220703 128.0743374633789 22.088001251220703 Q 130.1223374633789 22.088001251220703 131.3063374633789 23.4960012512207 Q 132.49033746337892 24.904001251220702 132.49033746337892 26.888001251220704 Q 132.49033746337892 28.744001251220702 131.2743374633789 30.152001251220703 Q 130.0583374633789 31.560001251220704 127.8823374633789 31.560001251220704 Q 126.4743374633789 31.560001251220704 125.99433746337891 30.888001251220704 Q 125.51433746337891 30.216001251220703 125.25833746337891 28.936001251220702 Q 125.06633746337891 28.1040012512207 124.87433746337891 27.7200012512207 Q 124.6823374633789 27.336001251220704 124.1703374633789 27.336001251220704 Q 122.8263374633789 27.336001251220704 121.89833746337891 27.8800012512207 Q 120.97033746337891 28.4240012512207 119.4983374633789 29.768001251220703 L 114.37833746337891 54.0880012512207 L 105.1623374633789 54.0880012512207 Z M 138.95423364257812 54.4720012512207 Q 135.88223364257811 54.4720012512207 133.77023364257812 53.288001251220706 Q 131.65823364257812 52.1040012512207 130.63423364257812 50.2160012512207 Q 129.61023364257812 48.328001251220705 129.61023364257812 46.2800012512207 Q 129.61023364257812 44.1680012512207 130.6022336425781 42.600001251220704 Q 131.59423364257813 41.032001251220706 133.00223364257812 40.328001251220705 Q 135.49823364257813 35.8480012512207 137.35423364257812 31.272001251220704 Q 139.21023364257812 26.696001251220704 140.87423364257813 21.384001251220702 L 150.3462336425781 20.1040012512207 Q 150.66623364257813 28.2960012512207 151.43423364257814 37.8320012512207 Q 151.75423364257813 41.672001251220706 151.75423364257813 43.4000012512207 Q 151.75423364257813 47.304001251220704 149.77023364257812 49.800001251220706 Q 147.7862336425781 52.2960012512207 144.87423364257813 53.3840012512207 Q 141.96223364257813 54.4720012512207 138.95423364257812 54.4720012512207 Z M 136.90623364257812 49.416001251220706 Q 139.27423364257814 49.416001251220706 140.87423364257813 48.008001251220705 Q 142.47423364257813 46.600001251220704 142.47423364257813 43.4640012512207 Q 142.47423364257813 41.544001251220706 142.0902336425781 38.0880012512207 Q 141.45023364257813 30.792001251220704 141.25823364257812 28.2960012512207 Q 139.72223364257812 33.3520012512207 136.07423364257812 40.392001251220705 Q 137.54623364257813 41.160001251220706 137.54623364257813 42.6320012512207 Q 137.54623364257813 43.8480012512207 136.74623364257812 44.8080012512207 Q 135.94623364257814 45.7680012512207 134.73023364257813 45.7680012512207 Q 133.38623364257813 45.7680012512207 133.00223364257812 44.9360012512207 Q 133.00223364257812 47.240001251220704 133.93023364257812 48.328001251220705 Q 134.8582336425781 49.416001251220706 136.90623364257812 49.416001251220706 Z" transform="matrix(1, 0, 0, 1, 0, 0)" style="white-space: pre;"/>
</svg>