<svg viewBox="38.967 28.006 722.067 143.989" xmlns="http://www.w3.org/2000/svg">
  <path d="M -265.9568439941406 124.5010018310547 Q -268.3248439941406 124.5010018310547 -270.11684399414065 124.1170018310547 Q -271.9088439941406 123.7330018310547 -273.22084399414064 122.26100183105468 Q -274.53284399414065 120.78900183105469 -274.53284399414065 117.71700183105469 Q -274.53284399414065 113.42900183105469 -271.9408439941406 106.19700183105469 Q -269.3488439941406 98.96500183105468 -265.12484399414063 91.66900183105469 Q -268.3248439941406 91.8610018310547 -270.1808439941406 92.6290018310547 Q -272.0368439941406 93.3970018310547 -272.61284399414063 94.99700183105469 Q -272.3568439941406 94.99700183105469 -272.06884399414065 95.63700183105469 Q -271.78084399414064 96.27700183105469 -271.78084399414064 96.98100183105468 Q -271.78084399414064 98.13300183105468 -272.80484399414064 98.80500183105468 Q -273.82884399414064 99.47700183105468 -275.36484399414064 99.47700183105468 Q -277.1568439941406 99.47700183105468 -278.24484399414064 98.51700183105469 Q -279.3328439941406 97.55700183105469 -279.3328439941406 95.76500183105469 Q -279.3328439941406 93.58900183105469 -277.63684399414063 91.79700183105469 Q -275.9408439941406 90.00500183105468 -272.9328439941406 88.94900183105469 Q -269.92484399414064 87.89300183105469 -266.2768439941406 87.89300183105469 Q -264.9328439941406 87.89300183105469 -262.94884399414065 88.08500183105468 Q -257.7008439941406 79.76500183105469 -251.84484399414063 74.48500183105469 Q -245.9888439941406 69.20500183105469 -240.67684399414063 69.20500183105469 Q -237.60484399414062 69.20500183105469 -235.6208439941406 70.10100183105469 L -245.66884399414062 117.20500183105469 L -254.88484399414062 117.20500183105469 L -249.95684399414063 93.97300183105469 Q -252.32484399414062 92.8850018310547 -254.30884399414063 92.3730018310547 Q -256.29284399414064 91.8610018310547 -258.53284399414065 91.66900183105469 Q -262.1808439941406 99.54100183105469 -264.51684399414063 107.76500183105469 Q -266.85284399414064 115.9890018310547 -266.85284399414064 120.91700183105469 Q -266.85284399414064 123.3490018310547 -265.9568439941406 124.5010018310547 Z M -245.66884399414062 73.74900183105468 Q -248.42084399414063 75.22100183105468 -251.39684399414062 79.22100183105468 Q -254.37284399414062 83.22100183105468 -257.1888439941406 88.91700183105469 Q -252.58084399414062 89.81300183105469 -249.38084399414063 91.15700183105469 Z M -229.03421569824218 133.2050018310547 Q -232.0422156982422 133.2050018310547 -234.31421569824218 131.2530018310547 Q -236.5862156982422 129.3010018310547 -236.5862156982422 126.29300183105468 Q -236.5862156982422 123.54100183105469 -235.17821569824218 121.74900183105468 Q -233.7702156982422 119.95700183105468 -231.5302156982422 118.90100183105469 Q -229.29021569824218 117.84500183105469 -225.5782156982422 116.69300183105469 L -217.8342156982422 80.14900183105469 Q -216.5542156982422 74.00500183105468 -213.3222156982422 71.63700183105469 Q -210.0902156982422 69.26900183105468 -206.1862156982422 69.26900183105468 Q -203.17821569824218 69.26900183105468 -200.9062156982422 71.22100183105468 Q -198.6342156982422 73.17300183105468 -198.6342156982422 76.18100183105469 Q -198.6342156982422 77.6530018310547 -198.82621569824218 78.80500183105468 L -201.8342156982422 78.80500183105468 Q -201.70621569824218 77.3970018310547 -201.70621569824218 77.07700183105469 Q -201.70621569824218 76.05300183105469 -202.41021569824218 75.47700183105468 Q -203.1142156982422 74.90100183105469 -204.1382156982422 74.90100183105469 Q -205.4822156982422 74.90100183105469 -206.7622156982422 76.08500183105468 Q -208.0422156982422 77.26900183105468 -208.61821569824218 80.14900183105469 L -209.70621569824218 85.20500183105469 L -192.61821569824218 85.20500183105469 L -197.22621569824219 106.96500183105469 Q -197.4182156982422 107.92500183105469 -197.4182156982422 108.75700183105468 Q -197.4182156982422 111.38100183105469 -195.49821569824218 111.38100183105469 Q -193.70621569824218 111.38100183105469 -192.42621569824217 109.87700183105468 Q -191.1462156982422 108.3730018310547 -190.37821569824217 105.74900183105468 L -186.0262156982422 85.20500183105469 L -176.8102156982422 85.20500183105469 L -181.4182156982422 106.96500183105469 Q -181.6742156982422 107.92500183105469 -181.6742156982422 109.01300183105468 Q -181.6742156982422 110.29300183105468 -181.0662156982422 110.83700183105469 Q -180.45821569824218 111.38100183105469 -179.0502156982422 111.38100183105469 Q -177.2582156982422 111.38100183105469 -175.94621569824218 109.84500183105469 Q -174.6342156982422 108.30900183105469 -173.86621569824217 105.74900183105468 L -171.17821569824218 105.74900183105468 Q -173.54621569824218 112.66100183105469 -177.03421569824218 115.12500183105469 Q -180.52221569824218 117.58900183105469 -184.0422156982422 117.58900183105469 Q -186.79421569824217 117.58900183105469 -188.42621569824217 116.05300183105469 Q -190.05821569824218 114.51700183105469 -190.37821569824217 111.50900183105469 Q -192.5542156982422 115.02900183105469 -194.9542156982422 116.30900183105469 Q -197.35421569824217 117.58900183105469 -199.85021569824218 117.58900183105469 Q -202.92221569824218 117.58900183105469 -204.8102156982422 115.66900183105469 Q -206.6982156982422 113.74900183105468 -206.6982156982422 109.90900183105468 Q -206.6982156982422 108.30900183105469 -206.1862156982422 105.74900183105468 L -202.41021569824218 87.76500183105469 L -210.21821569824218 87.76500183105469 L -217.5782156982422 122.32500183105469 Q -218.8582156982422 128.5330018310547 -221.9942156982422 130.86900183105467 Q -225.13021569824218 133.2050018310547 -229.03421569824218 133.2050018310547 Z M -230.5062156982422 127.50900183105469 Q -227.94621569824218 127.50900183105469 -226.8582156982422 122.51700183105469 L -226.0262156982422 118.80500183105468 Q -229.4182156982422 119.95700183105468 -231.24221569824218 121.46100183105469 Q -233.0662156982422 122.96500183105469 -233.0662156982422 125.3970018310547 Q -233.0662156982422 126.1650018310547 -232.2982156982422 126.83700183105469 Q -231.5302156982422 127.50900183105469 -230.5062156982422 127.50900183105469 Z M -151.8503787841797 117.58900183105469 Q -155.2423787841797 117.58900183105469 -156.7783787841797 115.54100183105469 Q -158.3143787841797 113.49300183105468 -158.3143787841797 110.35700183105469 Q -158.3143787841797 109.01300183105468 -157.99437878417967 107.31700183105468 Q -157.67437878417968 105.62100183105468 -157.32237878417968 104.02100183105469 Q -156.97037878417967 102.42100183105468 -156.8423787841797 101.97300183105469 Q -156.3303787841797 99.73300183105468 -155.88237878417968 97.55700183105469 Q -155.43437878417967 95.38100183105469 -155.43437878417967 94.03700183105468 Q -155.43437878417967 90.77300183105469 -157.7383787841797 90.77300183105469 Q -159.4023787841797 90.77300183105469 -160.6823787841797 92.40500183105469 Q -161.9623787841797 94.03700183105468 -162.7303787841797 96.66100183105469 L -167.0823787841797 117.20500183105469 L -176.29837878417968 117.20500183105469 L -169.51437878417968 85.20500183105469 L -160.29837878417968 85.20500183105469 L -161.00237878417968 88.53300183105469 Q -157.8023787841797 84.94900183105469 -153.51437878417968 84.94900183105469 Q -150.2503787841797 84.94900183105469 -148.3303787841797 86.74100183105469 Q -146.4103787841797 88.53300183105469 -146.4103787841797 92.18100183105469 Q -146.4103787841797 94.03700183105468 -146.85837878417968 96.30900183105469 Q -147.30637878417969 98.58100183105469 -148.13837878417968 101.84500183105469 Q -148.65037878417968 103.82900183105468 -149.06637878417968 105.71700183105469 Q -149.48237878417967 107.6050018310547 -149.48237878417967 108.69300183105469 Q -149.48237878417967 109.97300183105469 -148.90637878417968 110.67700183105468 Q -148.3303787841797 111.38100183105469 -146.9223787841797 111.38100183105469 Q -145.3863787841797 111.38100183105469 -144.81037878417968 110.99700183105469 Q -145.1943787841797 114.26100183105468 -147.1463787841797 115.92500183105469 Q -149.0983787841797 117.58900183105469 -151.8503787841797 117.58900183105469 Z M -142.19455773925782 125.26900183105468 Q -142.7705577392578 124.8850018310547 -142.7705577392578 124.18100183105469 Q -142.7705577392578 123.41300183105469 -142.38655773925782 122.83700183105469 Q -142.0025577392578 122.26100183105468 -141.10655773925782 121.30100183105469 Q -140.2105577392578 120.34100183105468 -139.82655773925782 119.76500183105469 Q -139.4425577392578 119.18900183105468 -139.4425577392578 118.35700183105469 Q -139.4425577392578 117.65300183105468 -140.2745577392578 117.07700183105469 Q -143.2825577392578 115.15700183105469 -143.2825577392578 112.40500183105469 Q -143.2825577392578 110.29300183105468 -141.8105577392578 108.78900183105469 Q -140.33855773925782 107.28500183105469 -138.2265577392578 107.28500183105469 Q -136.17855773925783 107.28500183105469 -135.0265577392578 108.6290018310547 Q -133.87455773925782 109.97300183105469 -133.87455773925782 112.14900183105469 Q -133.87455773925782 115.15700183105469 -136.14655773925782 118.93300183105468 Q -138.4185577392578 122.70900183105469 -142.19455773925782 125.26900183105468 Z M -122.86673522949219 133.2050018310547 Q -125.87473522949219 133.2050018310547 -128.14673522949218 131.2530018310547 Q -130.4187352294922 129.3010018310547 -130.4187352294922 126.29300183105468 Q -130.4187352294922 123.54100183105469 -129.01073522949218 121.74900183105468 Q -127.60273522949218 119.95700183105468 -125.36273522949219 118.90100183105469 Q -123.12273522949219 117.84500183105469 -119.41073522949219 116.69300183105469 L -111.66673522949219 80.14900183105469 Q -110.38673522949219 74.00500183105468 -107.15473522949219 71.63700183105469 Q -103.92273522949219 69.26900183105468 -100.0187352294922 69.26900183105468 Q -97.01073522949218 69.26900183105468 -94.73873522949219 71.22100183105468 Q -92.46673522949219 73.17300183105468 -92.46673522949219 76.18100183105469 Q -92.46673522949219 77.6530018310547 -92.65873522949218 78.80500183105468 L -95.66673522949219 78.80500183105468 Q -95.53873522949219 77.3970018310547 -95.53873522949219 77.07700183105469 Q -95.53873522949219 76.05300183105469 -96.24273522949218 75.47700183105468 Q -96.94673522949219 74.90100183105469 -97.97073522949219 74.90100183105469 Q -99.31473522949219 74.90100183105469 -100.59473522949219 76.08500183105468 Q -101.87473522949219 77.26900183105468 -102.45073522949218 80.14900183105469 L -103.53873522949219 85.20500183105469 L -98.86673522949218 85.20500183105469 L -99.31473522949219 87.76500183105469 L -104.05073522949219 87.76500183105469 L -111.41073522949219 122.32500183105469 Q -112.69073522949219 128.5330018310547 -115.82673522949219 130.86900183105467 Q -118.96273522949218 133.2050018310547 -122.86673522949219 133.2050018310547 Z M -124.33873522949219 127.50900183105469 Q -121.77873522949218 127.50900183105469 -120.69073522949219 122.51700183105469 L -119.85873522949218 118.80500183105468 Q -123.2507352294922 119.95700183105468 -125.07473522949219 121.46100183105469 Q -126.89873522949219 122.96500183105469 -126.89873522949219 125.3970018310547 Q -126.89873522949219 126.1650018310547 -126.13073522949219 126.83700183105469 Q -125.36273522949219 127.50900183105469 -124.33873522949219 127.50900183105469 Z M -95.66824841308593 85.20500183105469 L -86.45224841308594 85.20500183105469 L -87.28424841308593 89.17300183105469 Q -85.10824841308593 87.25300183105469 -83.34824841308594 86.22900183105469 Q -81.58824841308594 85.20500183105469 -79.54024841308593 85.20500183105469 Q -77.49224841308595 85.20500183105469 -76.30824841308593 86.61300183105469 Q -75.12424841308594 88.02100183105469 -75.12424841308594 90.00500183105468 Q -75.12424841308594 91.8610018310547 -76.34024841308593 93.26900183105468 Q -77.55624841308594 94.6770018310547 -79.73224841308594 94.6770018310547 Q -81.14024841308594 94.6770018310547 -81.62024841308593 94.00500183105468 Q -82.10024841308594 93.33300183105469 -82.35624841308594 92.05300183105469 Q -82.54824841308593 91.22100183105468 -82.74024841308594 90.83700183105469 Q -82.93224841308594 90.45300183105469 -83.44424841308594 90.45300183105469 Q -84.78824841308594 90.45300183105469 -85.71624841308594 90.99700183105469 Q -86.64424841308593 91.54100183105469 -88.11624841308594 92.8850018310547 L -93.23624841308593 117.20500183105469 L -102.45224841308594 117.20500183105469 Z M -65.26897021484375 81.74900183105468 Q -67.38097021484376 81.74900183105468 -68.85297021484375 80.27700183105469 Q -70.32497021484374 78.80500183105468 -70.32497021484374 76.69300183105469 Q -70.32497021484374 74.58100183105469 -68.85297021484375 73.07700183105469 Q -67.38097021484376 71.57300183105468 -65.26897021484375 71.57300183105468 Q -63.15697021484375 71.57300183105468 -61.65297021484375 73.07700183105469 Q -60.14897021484375 74.58100183105469 -60.14897021484375 76.69300183105469 Q -60.14897021484375 78.80500183105468 -61.65297021484375 80.27700183105469 Q -63.15697021484375 81.74900183105468 -65.26897021484375 81.74900183105468 Z M -69.62097021484375 117.58900183105469 Q -72.69297021484375 117.58900183105469 -74.58097021484375 115.66900183105469 Q -76.46897021484375 113.74900183105468 -76.46897021484375 109.90900183105468 Q -76.46897021484375 108.30900183105469 -75.95697021484375 105.74900183105468 L -71.60497021484375 85.20500183105469 L -62.38897021484375 85.20500183105469 L -66.99697021484374 106.96500183105469 Q -67.25297021484374 107.92500183105469 -67.25297021484374 109.01300183105468 Q -67.25297021484374 110.29300183105468 -66.64497021484375 110.83700183105469 Q -66.03697021484375 111.38100183105469 -64.62897021484375 111.38100183105469 Q -62.77297021484375 111.38100183105469 -61.17297021484375 109.81300183105469 Q -59.57297021484375 108.24500183105468 -58.86897021484375 105.74900183105468 L -56.180970214843754 105.74900183105468 Q -58.54897021484375 112.66100183105469 -62.26097021484375 115.12500183105469 Q -65.97297021484376 117.58900183105469 -69.62097021484375 117.58900183105469 Z M -49.718487213134765 117.58900183105469 Q -54.45448721313477 117.58900183105469 -57.078487213134764 115.12500183105469 Q -59.702487213134766 112.66100183105469 -59.702487213134766 107.41300183105469 Q -59.702487213134766 102.99700183105469 -57.974487213134765 97.68500183105469 Q -56.24648721313476 92.3730018310547 -52.34248721313477 88.50100183105468 Q -48.43848721313476 84.6290018310547 -42.422487213134765 84.6290018310547 Q -35.382487213134766 84.6290018310547 -35.382487213134766 90.77300183105469 Q -35.382487213134766 94.35700183105469 -37.43048721313477 97.36500183105468 Q -39.47848721313477 100.3730018310547 -42.870487213134766 102.19700183105469 Q -46.26248721313476 104.02100183105469 -50.102487213134765 104.27700183105469 Q -50.230487213134765 106.19700183105469 -50.230487213134765 106.83700183105469 Q -50.230487213134765 109.97300183105469 -49.142487213134764 111.09300183105469 Q -48.05448721313476 112.21300183105468 -45.62248721313476 112.21300183105468 Q -42.166487213134765 112.21300183105468 -39.702487213134766 110.61300183105469 Q -37.23848721313476 109.01300183105468 -34.294487213134765 105.74900183105468 L -32.11848721313477 105.74900183105468 Q -39.22248721313477 117.58900183105469 -49.718487213134765 117.58900183105469 Z M -49.590487213134764 101.20500183105469 Q -47.22248721313477 101.07700183105469 -45.078487213134764 99.54100183105469 Q -42.934487213134766 98.00500183105468 -41.62248721313476 95.63700183105469 Q -40.31048721313476 93.26900183105468 -40.31048721313476 90.64500183105469 Q -40.31048721313476 88.02100183105469 -41.910487213134765 88.02100183105469 Q -44.21448721313477 88.02100183105469 -46.422487213134765 92.05300183105469 Q -48.630487213134764 96.08500183105468 -49.590487213134764 101.20500183105469 Z M -11.187568756103516 117.58900183105469 Q -15.091568756103516 117.58900183105469 -16.915568756103514 115.50900183105469 Q -18.739568756103516 113.42900183105469 -18.739568756103516 110.35700183105469 Q -18.739568756103516 109.01300183105468 -18.419568756103516 107.31700183105468 Q -18.099568756103515 105.62100183105468 -17.747568756103515 104.02100183105469 Q -17.395568756103515 102.42100183105468 -17.267568756103515 101.97300183105469 Q -16.755568756103514 99.73300183105468 -16.307568756103514 97.55700183105469 Q -15.859568756103513 95.38100183105469 -15.859568756103513 94.03700183105468 Q -15.859568756103513 90.77300183105469 -18.163568756103516 90.77300183105469 Q -19.827568756103517 90.77300183105469 -21.107568756103515 92.40500183105469 Q -22.387568756103516 94.03700183105468 -23.155568756103513 96.66100183105469 L -27.507568756103517 117.20500183105469 L -36.72356875610352 117.20500183105469 L -29.939568756103515 85.20500183105469 L -20.723568756103518 85.20500183105469 L -21.427568756103515 88.53300183105469 Q -18.227568756103516 84.94900183105469 -13.939568756103515 84.94900183105469 Q -10.675568756103516 84.94900183105469 -8.755568756103514 86.74100183105469 Q -6.835568756103516 88.53300183105469 -6.835568756103516 92.18100183105469 Q -6.835568756103516 94.03700183105468 -7.2835687561035165 96.30900183105469 Q -7.731568756103513 98.58100183105469 -8.563568756103514 101.84500183105469 Q -9.075568756103515 103.82900183105468 -9.491568756103515 105.71700183105469 Q -9.907568756103515 107.6050018310547 -9.907568756103515 108.69300183105469 Q -9.907568756103515 109.97300183105469 -9.331568756103515 110.67700183105468 Q -8.755568756103514 111.38100183105469 -7.347568756103517 111.38100183105469 Q -5.427568756103515 111.38100183105469 -4.275568756103514 110.00500183105468 Q -3.1235687561035164 108.6290018310547 -1.9715687561035153 105.74900183105468 L 0.716431243896487 105.74900183105468 Q -1.651568756103515 112.78900183105469 -4.755568756103514 115.18900183105468 Q -7.8595687561035135 117.58900183105469 -11.187568756103516 117.58900183105469 Z M 5.709782772064209 117.58900183105469 Q 2.061782772064209 117.58900183105469 -0.3702172279357909 115.09300183105469 Q -2.802217227935791 112.59700183105468 -2.802217227935791 107.28500183105469 Q -2.802217227935791 102.54900183105468 -0.914217227935791 97.33300183105469 Q 0.9737827720642089 92.1170018310547 4.717782772064209 88.50100183105468 Q 8.46178277206421 84.8850018310547 13.645782772064209 84.8850018310547 Q 16.26978277206421 84.8850018310547 17.54978277206421 85.78100183105468 Q 18.82978277206421 86.67700183105468 18.82978277206421 88.14900183105469 L 18.82978277206421 88.40500183105469 L 21.96578277206421 73.68500183105468 L 31.43778277206421 72.40500183105468 L 24.07778277206421 106.96500183105469 Q 23.82178277206421 107.92500183105469 23.82178277206421 109.01300183105468 Q 23.82178277206421 110.29300183105468 24.42978277206421 110.83700183105469 Q 25.037782772064208 111.38100183105469 26.44578277206421 111.38100183105469 Q 28.23778277206421 111.38100183105469 29.54978277206421 109.84500183105469 Q 30.86178277206421 108.30900183105469 31.62978277206421 105.74900183105468 L 34.31778277206421 105.74900183105468 Q 30.41378277206421 117.20500183105469 21.45378277206421 117.20500183105469 Q 18.82978277206421 117.20500183105469 17.19778277206421 115.79700183105469 Q 15.56578277206421 114.38900183105468 15.18178277206421 111.70100183105468 Q 13.517782772064209 114.26100183105468 11.18178277206421 115.92500183105469 Q 8.84578277206421 117.58900183105469 5.709782772064209 117.58900183105469 Z M 9.869782772064209 111.38100183105469 Q 11.405782772064208 111.38100183105469 12.97378277206421 109.97300183105469 Q 14.54178277206421 108.56500183105469 15.11778277206421 106.06900183105469 L 15.11778277206421 105.74900183105468 L 18.25378277206421 91.09300183105469 Q 17.67778277206421 88.85300183105468 15.62978277206421 88.85300183105468 Q 13.06978277206421 88.85300183105468 11.02178277206421 91.82900183105468 Q 8.97378277206421 94.80500183105468 7.821782772064209 98.99700183105469 Q 6.6697827720642096 103.18900183105468 6.6697827720642096 106.38900183105468 Q 6.6697827720642096 109.58900183105469 7.597782772064209 110.48500183105469 Q 8.52578277206421 111.38100183105469 9.869782772064209 111.38100183105469 Z M 37.96061471557617 117.58900183105469 Q 34.888614715576175 117.58900183105469 33.00061471557617 115.66900183105469 Q 31.11261471557617 113.74900183105468 31.11261471557617 109.90900183105468 Q 31.11261471557617 108.30900183105469 31.624614715576172 105.74900183105468 L 38.47261471557617 73.68500183105468 L 47.94461471557617 72.40500183105468 L 40.58461471557617 106.96500183105469 Q 40.32861471557617 107.92500183105469 40.32861471557617 109.01300183105468 Q 40.32861471557617 110.29300183105468 40.93661471557617 110.83700183105469 Q 41.544614715576174 111.38100183105469 42.952614715576175 111.38100183105469 Q 44.80861471557617 111.38100183105469 46.40861471557617 109.81300183105469 Q 48.00861471557617 108.24500183105468 48.71261471557617 105.74900183105468 L 51.40061471557617 105.74900183105468 Q 49.03261471557617 112.66100183105469 45.32061471557617 115.12500183105469 Q 41.608614715576174 117.58900183105469 37.96061471557617 117.58900183105469 Z M 58.695101531982424 133.2050018310547 Q 55.68710153198242 133.2050018310547 53.41510153198242 131.2530018310547 Q 51.143101531982424 129.3010018310547 51.143101531982424 126.29300183105468 Q 51.143101531982424 123.4770018310547 52.551101531982425 121.68500183105469 Q 53.95910153198242 119.89300183105469 56.19910153198242 118.86900183105469 Q 58.43910153198242 117.84500183105469 62.21510153198242 116.69300183105469 L 62.85510153198242 113.87700183105468 Q 59.591101531982424 117.58900183105469 55.04710153198242 117.58900183105469 Q 51.975101531982425 117.58900183105469 50.08710153198242 115.66900183105469 Q 48.19910153198242 113.74900183105468 48.19910153198242 109.90900183105468 Q 48.19910153198242 108.30900183105469 48.71110153198242 105.74900183105468 L 53.063101531982426 85.20500183105469 L 62.27910153198242 85.20500183105469 L 57.67110153198242 106.96500183105469 Q 57.47910153198242 107.7330018310547 57.47910153198242 108.56500183105469 Q 57.47910153198242 111.38100183105469 59.399101531982424 111.38100183105469 Q 61.191101531982426 111.38100183105469 62.47110153198242 109.87700183105468 Q 63.75110153198242 108.3730018310547 64.51910153198241 105.74900183105468 L 68.87110153198242 85.20500183105469 L 78.15110153198242 85.20500183105469 L 70.34310153198243 122.32500183105469 Q 69.06310153198243 128.4690018310547 65.83110153198243 130.8370018310547 Q 62.59910153198242 133.2050018310547 58.695101531982424 133.2050018310547 Z M 57.22310153198242 127.50900183105469 Q 58.37510153198242 127.50900183105469 59.399101531982424 126.32500183105469 Q 60.423101531982425 125.1410018310547 60.99910153198242 122.51700183105469 L 61.76710153198242 118.74100183105469 Q 58.37510153198242 119.89300183105469 56.51910153198242 121.42900183105469 Q 54.66310153198242 122.96500183105469 54.66310153198242 125.3970018310547 Q 54.66310153198242 126.1650018310547 55.43110153198242 126.83700183105469 Q 56.19910153198242 127.50900183105469 57.22310153198242 127.50900183105469 Z M 101.19261889648438 117.58900183105469 Q 96.45661889648437 117.58900183105469 93.83261889648438 115.12500183105469 Q 91.20861889648438 112.66100183105469 91.20861889648438 107.41300183105469 Q 91.20861889648438 102.99700183105469 92.96861889648437 97.68500183105469 Q 94.72861889648438 92.3730018310547 98.60061889648438 88.50100183105468 Q 102.47261889648438 84.6290018310547 108.42461889648438 84.6290018310547 Q 112.26461889648438 84.6290018310547 113.89661889648437 86.29300183105468 Q 115.52861889648437 87.95700183105468 115.52861889648437 90.51700183105469 Q 115.52861889648437 92.75700183105468 114.56861889648437 93.97300183105469 Q 113.60861889648437 95.18900183105468 112.13661889648438 95.18900183105468 Q 111.04861889648437 95.18900183105468 109.89661889648437 94.4210018310547 Q 110.66461889648437 92.30900183105469 110.66461889648437 90.64500183105469 Q 110.66461889648437 89.42900183105469 110.21661889648438 88.72500183105468 Q 109.76861889648438 88.02100183105469 108.87261889648437 88.02100183105469 Q 106.95261889648438 88.02100183105469 105.03261889648438 91.15700183105469 Q 103.11261889648438 94.29300183105468 101.89661889648437 98.77300183105469 Q 100.68061889648438 103.25300183105469 100.68061889648438 106.83700183105469 Q 100.68061889648438 109.97300183105469 101.76861889648437 111.09300183105469 Q 102.85661889648438 112.21300183105468 105.28861889648438 112.21300183105468 Q 108.74461889648438 112.21300183105468 111.20861889648438 110.61300183105469 Q 113.67261889648438 109.01300183105468 116.61661889648437 105.74900183105468 L 118.79261889648437 105.74900183105468 Q 111.68861889648437 117.58900183105469 101.19261889648438 117.58900183105469 Z M 125.95572485351562 117.46100183105469 Q 121.21972485351563 117.46100183105469 118.46772485351562 115.02900183105469 Q 115.71572485351562 112.59700183105468 115.71572485351562 107.3490018310547 Q 115.71572485351562 102.99700183105469 117.50772485351563 97.68500183105469 Q 119.29972485351563 92.3730018310547 123.26772485351563 88.50100183105468 Q 127.23572485351562 84.6290018310547 133.2517248535156 84.6290018310547 Q 141.44372485351562 84.6290018310547 141.44372485351562 94.86900183105469 L 141.44372485351562 94.93300183105468 Q 141.63572485351563 94.99700183105469 142.14772485351563 94.99700183105469 Q 144.25972485351562 94.99700183105469 147.01172485351563 93.87700183105468 Q 149.7637248535156 92.75700183105468 152.00372485351562 91.15700183105469 L 152.57972485351564 92.8850018310547 Q 150.72372485351562 94.86900183105469 147.74772485351562 96.24500183105468 Q 144.77172485351562 97.62100183105468 141.2517248535156 98.19700183105469 Q 140.7397248535156 104.02100183105469 138.62772485351562 108.3730018310547 Q 136.51572485351562 112.72500183105468 133.18772485351562 115.09300183105469 Q 129.85972485351562 117.46100183105469 125.95572485351562 117.46100183105469 Z M 128.51572485351562 111.70100183105468 Q 130.05172485351562 111.70100183105468 131.58772485351562 109.94100183105469 Q 133.12372485351563 108.18100183105469 134.2757248535156 105.1410018310547 Q 135.42772485351563 102.10100183105469 135.93972485351563 98.38900183105468 Q 134.21172485351562 98.00500183105468 134.21172485351562 95.70100183105468 Q 134.21172485351562 93.07700183105469 136.19572485351563 92.24500183105468 Q 136.0677248535156 90.13300183105468 135.5557248535156 89.33300183105469 Q 135.04372485351564 88.53300183105469 133.7637248535156 88.53300183105469 Q 131.65172485351562 88.53300183105469 129.66772485351564 91.6050018310547 Q 127.68372485351563 94.6770018310547 126.46772485351562 98.96500183105468 Q 125.25172485351563 103.25300183105469 125.25172485351563 106.51700183105469 Q 125.25172485351563 109.58900183105469 125.95572485351562 110.64500183105469 Q 126.65972485351563 111.70100183105468 128.51572485351562 111.70100183105468 Z M 183.61837512207032 117.58900183105469 Q 179.71437512207032 117.58900183105469 177.8903751220703 115.50900183105469 Q 176.06637512207033 113.42900183105469 176.06637512207033 110.35700183105469 Q 176.06637512207033 109.01300183105468 176.38637512207032 107.31700183105468 Q 176.7063751220703 105.62100183105468 177.05837512207032 104.02100183105469 Q 177.41037512207032 102.42100183105468 177.5383751220703 101.97300183105469 Q 178.0503751220703 99.73300183105468 178.4983751220703 97.55700183105469 Q 178.94637512207032 95.38100183105469 178.94637512207032 94.03700183105468 Q 178.94637512207032 90.77300183105469 176.64237512207032 90.77300183105469 Q 174.9783751220703 90.77300183105469 173.6983751220703 92.40500183105469 Q 172.4183751220703 94.03700183105468 171.6503751220703 96.66100183105469 L 167.2983751220703 117.20500183105469 L 158.08237512207032 117.20500183105469 L 162.75437512207031 95.12500183105469 Q 162.94637512207032 94.35700183105469 162.94637512207032 93.52500183105468 Q 162.94637512207032 90.70900183105468 161.0263751220703 90.70900183105468 Q 159.2343751220703 90.70900183105468 157.92237512207032 92.34100183105468 Q 156.6103751220703 93.97300183105469 155.8423751220703 96.66100183105469 L 151.4903751220703 117.20500183105469 L 142.27437512207032 117.20500183105469 L 149.05837512207032 85.20500183105469 L 158.27437512207032 85.20500183105469 L 157.57037512207032 88.53300183105469 Q 160.8343751220703 84.8850018310547 165.3783751220703 84.8850018310547 Q 171.01037512207031 84.8850018310547 171.97037512207032 90.38900183105468 Q 175.4903751220703 84.94900183105469 180.8663751220703 84.94900183105469 Q 184.13037512207032 84.94900183105469 186.0503751220703 86.74100183105469 Q 187.97037512207032 88.53300183105469 187.97037512207032 92.18100183105469 Q 187.97037512207032 94.03700183105468 187.52237512207032 96.30900183105469 Q 187.0743751220703 98.58100183105469 186.2423751220703 101.84500183105469 Q 185.7303751220703 103.82900183105468 185.31437512207032 105.71700183105469 Q 184.89837512207032 107.6050018310547 184.89837512207032 108.69300183105469 Q 184.89837512207032 109.97300183105469 185.4743751220703 110.67700183105468 Q 186.0503751220703 111.38100183105469 187.45837512207032 111.38100183105469 Q 189.3783751220703 111.38100183105469 190.53037512207032 110.00500183105468 Q 191.6823751220703 108.6290018310547 192.8343751220703 105.74900183105468 L 195.52237512207032 105.74900183105468 Q 193.15437512207032 112.78900183105469 190.0503751220703 115.18900183105468 Q 186.94637512207032 117.58900183105469 183.61837512207032 117.58900183105469 Z M 231.7449315185547 117.58900183105469 Q 227.8409315185547 117.58900183105469 226.01693151855468 115.50900183105469 Q 224.1929315185547 113.42900183105469 224.1929315185547 110.35700183105469 Q 224.1929315185547 109.01300183105468 224.5129315185547 107.31700183105468 Q 224.8329315185547 105.62100183105468 225.1849315185547 104.02100183105469 Q 225.5369315185547 102.42100183105468 225.66493151855468 101.97300183105469 Q 226.17693151855468 99.73300183105468 226.6249315185547 97.55700183105469 Q 227.0729315185547 95.38100183105469 227.0729315185547 94.03700183105468 Q 227.0729315185547 90.77300183105469 224.7689315185547 90.77300183105469 Q 223.10493151855468 90.77300183105469 221.82493151855468 92.40500183105469 Q 220.54493151855468 94.03700183105468 219.77693151855468 96.66100183105469 L 215.42493151855467 117.20500183105469 L 206.2089315185547 117.20500183105469 L 210.8809315185547 95.12500183105469 Q 211.0729315185547 94.35700183105469 211.0729315185547 93.52500183105468 Q 211.0729315185547 90.70900183105468 209.15293151855468 90.70900183105468 Q 207.36093151855468 90.70900183105468 206.0489315185547 92.34100183105468 Q 204.73693151855468 93.97300183105469 203.96893151855468 96.66100183105469 L 199.61693151855468 117.20500183105469 L 190.4009315185547 117.20500183105469 L 197.1849315185547 85.20500183105469 L 206.4009315185547 85.20500183105469 L 205.6969315185547 88.53300183105469 Q 208.96093151855467 84.8850018310547 213.50493151855468 84.8850018310547 Q 219.1369315185547 84.8850018310547 220.0969315185547 90.38900183105468 Q 223.61693151855468 84.94900183105469 228.99293151855468 84.94900183105469 Q 232.2569315185547 84.94900183105469 234.17693151855468 86.74100183105469 Q 236.0969315185547 88.53300183105469 236.0969315185547 92.18100183105469 Q 236.0969315185547 94.03700183105468 235.6489315185547 96.30900183105469 Q 235.20093151855468 98.58100183105469 234.3689315185547 101.84500183105469 Q 233.8569315185547 103.82900183105468 233.4409315185547 105.71700183105469 Q 233.0249315185547 107.6050018310547 233.0249315185547 108.69300183105469 Q 233.0249315185547 109.97300183105469 233.6009315185547 110.67700183105468 Q 234.17693151855468 111.38100183105469 235.5849315185547 111.38100183105469 Q 237.50493151855468 111.38100183105469 238.6569315185547 110.00500183105468 Q 239.8089315185547 108.6290018310547 240.96093151855467 105.74900183105468 L 243.6489315185547 105.74900183105468 Q 241.2809315185547 112.78900183105469 238.17693151855468 115.18900183105468 Q 235.0729315185547 117.58900183105469 231.7449315185547 117.58900183105469 Z M 247.29547265625 117.58900183105469 Q 244.22347265625 117.58900183105469 242.33547265625 115.66900183105469 Q 240.44747265625 113.74900183105468 240.44747265625 109.90900183105468 Q 240.44747265625 108.30900183105469 240.95947265625 105.74900183105468 L 245.31147265625 85.20500183105469 L 254.52747265625 85.20500183105469 L 249.91947265625 106.96500183105469 Q 249.72747265625 107.92500183105469 249.72747265625 108.75700183105468 Q 249.72747265625 111.38100183105469 251.64747265625 111.38100183105469 Q 253.43947265625 111.38100183105469 254.71947265625 109.87700183105468 Q 255.99947265625 108.3730018310547 256.76747265625 105.74900183105468 L 261.11947265625 85.20500183105469 L 270.33547265625 85.20500183105469 L 265.72747265625003 106.96500183105469 Q 265.47147265625 107.92500183105469 265.47147265625 109.01300183105468 Q 265.47147265625 110.29300183105468 266.07947265625 110.83700183105469 Q 266.68747265625 111.38100183105469 268.09547265625 111.38100183105469 Q 269.88747265625 111.38100183105469 271.19947265625 109.84500183105469 Q 272.51147265625 108.30900183105469 273.27947265625 105.74900183105468 L 275.96747265625 105.74900183105468 Q 273.59947265625 112.66100183105469 270.11147265625 115.12500183105469 Q 266.62347265625 117.58900183105469 263.10347265625 117.58900183105469 Q 260.35147265625 117.58900183105469 258.71947265625 116.05300183105469 Q 257.08747265625 114.51700183105469 256.76747265625 111.50900183105469 Q 254.59147265625 115.02900183105469 252.19147265625 116.30900183105469 Q 249.79147265625 117.58900183105469 247.29547265625 117.58900183105469 Z M 296.38482275390623 117.58900183105469 Q 292.48082275390624 117.58900183105469 290.6568227539062 115.50900183105469 Q 288.83282275390627 113.42900183105469 288.83282275390627 110.35700183105469 Q 288.83282275390627 109.01300183105468 289.15282275390626 107.31700183105468 Q 289.47282275390626 105.62100183105468 289.82482275390623 104.02100183105469 Q 290.17682275390627 102.42100183105468 290.30482275390625 101.97300183105469 Q 290.81682275390625 99.73300183105468 291.26482275390623 97.55700183105469 Q 291.71282275390627 95.38100183105469 291.71282275390627 94.03700183105468 Q 291.71282275390627 90.77300183105469 289.40882275390624 90.77300183105469 Q 287.74482275390625 90.77300183105469 286.4648227539063 92.40500183105469 Q 285.18482275390625 94.03700183105468 284.4168227539063 96.66100183105469 L 280.06482275390624 117.20500183105469 L 270.84882275390623 117.20500183105469 L 277.6328227539062 85.20500183105469 L 286.84882275390623 85.20500183105469 L 286.1448227539062 88.53300183105469 Q 289.34482275390627 84.94900183105469 293.6328227539062 84.94900183105469 Q 296.89682275390624 84.94900183105469 298.81682275390625 86.74100183105469 Q 300.73682275390627 88.53300183105469 300.73682275390627 92.18100183105469 Q 300.73682275390627 94.03700183105468 300.28882275390623 96.30900183105469 Q 299.84082275390625 98.58100183105469 299.00882275390626 101.84500183105469 Q 298.49682275390626 103.82900183105468 298.08082275390626 105.71700183105469 Q 297.66482275390626 107.6050018310547 297.66482275390626 108.69300183105469 Q 297.66482275390626 109.97300183105469 298.24082275390623 110.67700183105468 Q 298.81682275390625 111.38100183105469 300.22482275390627 111.38100183105469 Q 302.1448227539062 111.38100183105469 303.29682275390627 110.00500183105468 Q 304.44882275390626 108.6290018310547 305.60082275390624 105.74900183105468 L 308.28882275390623 105.74900183105468 Q 305.92082275390624 112.78900183105469 302.81682275390625 115.18900183105468 Q 299.71282275390627 117.58900183105469 296.38482275390623 117.58900183105469 Z M 316.2823603515625 81.74900183105468 Q 314.1703603515625 81.74900183105468 312.6983603515625 80.27700183105469 Q 311.2263603515625 78.80500183105468 311.2263603515625 76.69300183105469 Q 311.2263603515625 74.58100183105469 312.6983603515625 73.07700183105469 Q 314.1703603515625 71.57300183105468 316.2823603515625 71.57300183105468 Q 318.3943603515625 71.57300183105468 319.8983603515625 73.07700183105469 Q 321.4023603515625 74.58100183105469 321.4023603515625 76.69300183105469 Q 321.4023603515625 78.80500183105468 319.8983603515625 80.27700183105469 Q 318.3943603515625 81.74900183105468 316.2823603515625 81.74900183105468 Z M 311.9303603515625 117.58900183105469 Q 308.8583603515625 117.58900183105469 306.9703603515625 115.66900183105469 Q 305.0823603515625 113.74900183105468 305.0823603515625 109.90900183105468 Q 305.0823603515625 108.30900183105469 305.5943603515625 105.74900183105468 L 309.9463603515625 85.20500183105469 L 319.1623603515625 85.20500183105469 L 314.5543603515625 106.96500183105469 Q 314.2983603515625 107.92500183105469 314.2983603515625 109.01300183105468 Q 314.2983603515625 110.29300183105468 314.9063603515625 110.83700183105469 Q 315.5143603515625 111.38100183105469 316.9223603515625 111.38100183105469 Q 318.7783603515625 111.38100183105469 320.3783603515625 109.81300183105469 Q 321.9783603515625 108.24500183105468 322.6823603515625 105.74900183105468 L 325.3703603515625 105.74900183105468 Q 323.0023603515625 112.66100183105469 319.2903603515625 115.12500183105469 Q 315.5783603515625 117.58900183105469 311.9303603515625 117.58900183105469 Z M 329.01684716796876 117.58900183105469 Q 325.94484716796876 117.58900183105469 324.0568471679687 115.66900183105469 Q 322.16884716796875 113.74900183105468 322.16884716796875 109.90900183105468 Q 322.16884716796875 108.30900183105469 322.68084716796875 105.74900183105468 L 326.5208471679687 87.76500183105469 L 324.40884716796876 87.76500183105469 L 324.92084716796876 85.20500183105469 L 327.0328471679687 85.20500183105469 L 328.95284716796874 76.3730018310547 L 338.4248471679688 75.09300183105469 L 336.24884716796873 85.20500183105469 L 340.08884716796877 85.20500183105469 L 339.57684716796877 87.76500183105469 L 335.73684716796873 87.76500183105469 L 331.64084716796873 106.96500183105469 Q 331.38484716796876 107.92500183105469 331.38484716796876 109.01300183105468 Q 331.38484716796876 110.29300183105468 331.99284716796876 110.83700183105469 Q 332.60084716796877 111.38100183105469 334.0088471679687 111.38100183105469 Q 335.8648471679688 111.38100183105469 337.46484716796874 109.81300183105469 Q 339.06484716796876 108.24500183105468 339.7688471679688 105.74900183105468 L 342.45684716796876 105.74900183105468 Q 340.08884716796877 112.66100183105469 336.3768471679688 115.12500183105469 Q 332.66484716796873 117.58900183105469 329.01684716796876 117.58900183105469 Z M 349.751333984375 133.2050018310547 Q 346.743333984375 133.2050018310547 344.471333984375 131.2530018310547 Q 342.199333984375 129.3010018310547 342.199333984375 126.29300183105468 Q 342.199333984375 123.4770018310547 343.607333984375 121.68500183105469 Q 345.015333984375 119.89300183105469 347.255333984375 118.86900183105469 Q 349.495333984375 117.84500183105469 353.271333984375 116.69300183105469 L 353.911333984375 113.87700183105468 Q 350.647333984375 117.58900183105469 346.103333984375 117.58900183105469 Q 343.031333984375 117.58900183105469 341.143333984375 115.66900183105469 Q 339.255333984375 113.74900183105468 339.255333984375 109.90900183105468 Q 339.255333984375 108.30900183105469 339.767333984375 105.74900183105468 L 344.119333984375 85.20500183105469 L 353.335333984375 85.20500183105469 L 348.727333984375 106.96500183105469 Q 348.53533398437503 107.7330018310547 348.53533398437503 108.56500183105469 Q 348.53533398437503 111.38100183105469 350.455333984375 111.38100183105469 Q 352.247333984375 111.38100183105469 353.527333984375 109.87700183105468 Q 354.807333984375 108.3730018310547 355.575333984375 105.74900183105468 L 359.927333984375 85.20500183105469 L 369.207333984375 85.20500183105469 L 361.399333984375 122.32500183105469 Q 360.119333984375 128.4690018310547 356.887333984375 130.8370018310547 Q 353.655333984375 133.2050018310547 349.751333984375 133.2050018310547 Z M 348.279333984375 127.50900183105469 Q 349.431333984375 127.50900183105469 350.455333984375 126.32500183105469 Q 351.479333984375 125.1410018310547 352.055333984375 122.51700183105469 L 352.823333984375 118.74100183105469 Q 349.431333984375 119.89300183105469 347.575333984375 121.42900183105469 Q 345.719333984375 122.96500183105469 345.719333984375 125.3970018310547 Q 345.719333984375 126.1650018310547 346.487333984375 126.83700183105469 Q 347.255333984375 127.50900183105469 348.279333984375 127.50900183105469 Z M 392.44086279296874 117.46100183105469 Q 387.70486279296875 117.46100183105469 384.95286279296874 115.02900183105469 Q 382.20086279296873 112.59700183105468 382.20086279296873 107.3490018310547 Q 382.20086279296873 102.99700183105469 383.99286279296877 97.68500183105469 Q 385.78486279296874 92.3730018310547 389.75286279296876 88.50100183105468 Q 393.7208627929688 84.6290018310547 399.73686279296874 84.6290018310547 Q 407.92886279296874 84.6290018310547 407.92886279296874 94.86900183105469 L 407.92886279296874 94.93300183105468 Q 408.12086279296875 94.99700183105469 408.63286279296875 94.99700183105469 Q 410.7448627929688 94.99700183105469 413.4968627929687 93.87700183105468 Q 416.24886279296874 92.75700183105468 418.48886279296875 91.15700183105469 L 419.06486279296877 92.8850018310547 Q 417.2088627929688 94.86900183105469 414.2328627929688 96.24500183105468 Q 411.2568627929688 97.62100183105468 407.73686279296874 98.19700183105469 Q 407.22486279296874 104.02100183105469 405.11286279296877 108.3730018310547 Q 403.00086279296875 112.72500183105468 399.6728627929688 115.09300183105469 Q 396.34486279296874 117.46100183105469 392.44086279296874 117.46100183105469 Z M 395.00086279296875 111.70100183105468 Q 396.53686279296875 111.70100183105468 398.07286279296875 109.94100183105469 Q 399.60886279296875 108.18100183105469 400.76086279296874 105.1410018310547 Q 401.9128627929687 102.10100183105469 402.4248627929687 98.38900183105468 Q 400.6968627929688 98.00500183105468 400.6968627929688 95.70100183105468 Q 400.6968627929688 93.07700183105469 402.68086279296875 92.24500183105468 Q 402.55286279296877 90.13300183105468 402.04086279296877 89.33300183105469 Q 401.52886279296877 88.53300183105469 400.24886279296874 88.53300183105469 Q 398.13686279296877 88.53300183105469 396.15286279296873 91.6050018310547 Q 394.16886279296875 94.6770018310547 392.95286279296874 98.96500183105468 Q 391.73686279296874 103.25300183105469 391.73686279296874 106.51700183105469 Q 391.73686279296874 109.58900183105469 392.44086279296874 110.64500183105469 Q 393.14486279296875 111.70100183105468 395.00086279296875 111.70100183105468 Z M 405.4315283203125 133.2050018310547 Q 402.42352832031247 133.2050018310547 400.1515283203125 131.2530018310547 Q 397.8795283203125 129.3010018310547 397.8795283203125 126.29300183105468 Q 397.8795283203125 123.54100183105469 399.2875283203125 121.74900183105468 Q 400.6955283203125 119.95700183105468 402.9355283203125 118.90100183105469 Q 405.1755283203125 117.84500183105469 408.8875283203125 116.69300183105469 L 416.6315283203125 80.14900183105469 Q 417.9115283203125 74.00500183105468 421.1435283203125 71.63700183105469 Q 424.3755283203125 69.26900183105468 428.2795283203125 69.26900183105468 Q 431.2875283203125 69.26900183105468 433.5595283203125 71.22100183105468 Q 435.8315283203125 73.17300183105468 435.8315283203125 76.18100183105469 Q 435.8315283203125 77.6530018310547 435.6395283203125 78.80500183105468 L 432.6315283203125 78.80500183105468 Q 432.7595283203125 77.3970018310547 432.7595283203125 77.07700183105469 Q 432.7595283203125 76.05300183105469 432.0555283203125 75.47700183105468 Q 431.3515283203125 74.90100183105469 430.3275283203125 74.90100183105469 Q 428.98352832031253 74.90100183105469 427.7035283203125 76.08500183105468 Q 426.4235283203125 77.26900183105468 425.8475283203125 80.14900183105469 L 424.7595283203125 85.20500183105469 L 429.4315283203125 85.20500183105469 L 428.98352832031253 87.76500183105469 L 424.2475283203125 87.76500183105469 L 416.8875283203125 122.32500183105469 Q 415.6075283203125 128.5330018310547 412.4715283203125 130.86900183105467 Q 409.3355283203125 133.2050018310547 405.4315283203125 133.2050018310547 Z M 403.9595283203125 127.50900183105469 Q 406.5195283203125 127.50900183105469 407.6075283203125 122.51700183105469 L 408.4395283203125 118.80500183105468 Q 405.0475283203125 119.95700183105468 403.2235283203125 121.46100183105469 Q 401.3995283203125 122.96500183105469 401.3995283203125 125.3970018310547 Q 401.3995283203125 126.1650018310547 402.1675283203125 126.83700183105469 Q 402.9355283203125 127.50900183105469 403.9595283203125 127.50900183105469 Z" transform="matrix(1, 0, 0, 1, 318.86602783203125, -25.11742401123047)" style="fill: rgb(0,0,0); white-space: pre;"/>
  <path transform="matrix(1, 0, 0, 1, 318.86602783203125, -25.11742401123047)" style="fill: rgb(0,0,0); white-space: pre;"/>
  <path d="M -124.07121533203124 181.58900183105467 Q -127.97521533203124 181.58900183105467 -129.79921533203125 179.5090018310547 Q -131.62321533203124 177.42900183105468 -131.62321533203124 174.35700183105467 Q -131.62321533203124 173.01300183105468 -131.30321533203124 171.31700183105468 Q -130.98321533203125 169.62100183105468 -130.63121533203125 168.0210018310547 Q -130.27921533203124 166.4210018310547 -130.15121533203126 165.9730018310547 Q -129.63921533203126 163.73300183105468 -129.19121533203125 161.5570018310547 Q -128.74321533203124 159.38100183105468 -128.74321533203124 158.03700183105468 Q -128.74321533203124 154.77300183105467 -131.04721533203124 154.77300183105467 Q -132.71121533203126 154.77300183105467 -133.99121533203126 156.40500183105468 Q -135.27121533203126 158.03700183105468 -136.03921533203126 160.66100183105468 L -140.39121533203127 181.2050018310547 L -149.60721533203125 181.2050018310547 L -144.93521533203125 159.12500183105467 Q -144.74321533203124 158.35700183105467 -144.74321533203124 157.52500183105468 Q -144.74321533203124 154.70900183105468 -146.66321533203126 154.70900183105468 Q -148.45521533203126 154.70900183105468 -149.76721533203124 156.34100183105468 Q -151.07921533203125 157.9730018310547 -151.84721533203125 160.66100183105468 L -156.19921533203126 181.2050018310547 L -165.41521533203124 181.2050018310547 L -158.63121533203125 149.2050018310547 L -149.41521533203124 149.2050018310547 L -150.11921533203125 152.5330018310547 Q -146.85521533203126 148.8850018310547 -142.31121533203125 148.8850018310547 Q -136.67921533203125 148.8850018310547 -135.71921533203124 154.38900183105468 Q -132.19921533203126 148.9490018310547 -126.82321533203125 148.9490018310547 Q -123.55921533203124 148.9490018310547 -121.63921533203126 150.7410018310547 Q -119.71921533203124 152.5330018310547 -119.71921533203124 156.1810018310547 Q -119.71921533203124 158.03700183105468 -120.16721533203125 160.30900183105467 Q -120.61521533203126 162.5810018310547 -121.44721533203125 165.84500183105467 Q -121.95921533203125 167.82900183105468 -122.37521533203125 169.7170018310547 Q -122.79121533203124 171.6050018310547 -122.79121533203124 172.6930018310547 Q -122.79121533203124 173.9730018310547 -122.21521533203125 174.6770018310547 Q -121.63921533203126 175.38100183105468 -120.23121533203124 175.38100183105468 Q -118.31121533203125 175.38100183105468 -117.15921533203125 174.0050018310547 Q -116.00721533203125 172.6290018310547 -114.85521533203125 169.7490018310547 L -112.16721533203125 169.7490018310547 Q -114.53521533203124 176.7890018310547 -117.63921533203126 179.1890018310547 Q -120.74321533203124 181.58900183105467 -124.07121533203124 181.58900183105467 Z M -105.52047906494141 181.4610018310547 Q -110.2564790649414 181.4610018310547 -113.00847906494141 179.0290018310547 Q -115.7604790649414 176.59700183105468 -115.7604790649414 171.3490018310547 Q -115.7604790649414 166.9970018310547 -113.9684790649414 161.68500183105468 Q -112.1764790649414 156.3730018310547 -108.2084790649414 152.50100183105468 Q -104.24047906494141 148.6290018310547 -98.2244790649414 148.6290018310547 Q -90.03247906494141 148.6290018310547 -90.03247906494141 158.86900183105467 L -90.03247906494141 158.9330018310547 Q -89.8404790649414 158.9970018310547 -89.3284790649414 158.9970018310547 Q -87.21647906494141 158.9970018310547 -84.4644790649414 157.87700183105468 Q -81.7124790649414 156.75700183105468 -79.47247906494141 155.15700183105469 L -78.8964790649414 156.8850018310547 Q -80.75247906494141 158.86900183105467 -83.72847906494141 160.24500183105468 Q -86.70447906494141 161.62100183105468 -90.2244790649414 162.19700183105468 Q -90.7364790649414 168.0210018310547 -92.8484790649414 172.3730018310547 Q -94.96047906494141 176.7250018310547 -98.28847906494141 179.0930018310547 Q -101.6164790649414 181.4610018310547 -105.52047906494141 181.4610018310547 Z M -102.96047906494141 175.7010018310547 Q -101.42447906494141 175.7010018310547 -99.88847906494141 173.94100183105468 Q -98.3524790649414 172.1810018310547 -97.2004790649414 169.1410018310547 Q -96.0484790649414 166.10100183105467 -95.5364790649414 162.38900183105468 Q -97.26447906494141 162.0050018310547 -97.26447906494141 159.7010018310547 Q -97.26447906494141 157.0770018310547 -95.2804790649414 156.24500183105468 Q -95.4084790649414 154.13300183105468 -95.9204790649414 153.33300183105467 Q -96.4324790649414 152.5330018310547 -97.7124790649414 152.5330018310547 Q -99.8244790649414 152.5330018310547 -101.80847906494141 155.6050018310547 Q -103.7924790649414 158.6770018310547 -105.00847906494141 162.96500183105468 Q -106.2244790649414 167.2530018310547 -106.2244790649414 170.5170018310547 Q -106.2244790649414 173.58900183105467 -105.52047906494141 174.64500183105469 Q -104.8164790649414 175.7010018310547 -102.96047906494141 175.7010018310547 Z M -79.47382116699218 181.58900183105467 Q -83.18582116699218 181.58900183105467 -85.26582116699218 179.7010018310547 Q -87.34582116699218 177.8130018310547 -87.34582116699218 174.03700183105468 Q -87.34582116699218 172.50100183105468 -87.02582116699219 170.96500183105468 L -82.41782116699218 149.2050018310547 L -73.20182116699219 149.2050018310547 L -77.80982116699218 170.96500183105468 Q -78.12982116699219 172.5650018310547 -78.12982116699219 173.26900183105468 Q -78.12982116699219 175.38100183105468 -75.95382116699218 175.38100183105468 Q -73.00982116699218 175.38100183105468 -70.48182116699219 171.6690018310547 Q -67.95382116699218 167.9570018310547 -66.41782116699218 162.8370018310547 Q -64.88182116699218 157.7170018310547 -64.88182116699218 154.0050018310547 Q -65.00982116699218 154.3250018310547 -65.71382116699219 154.4850018310547 Q -66.41782116699218 154.64500183105469 -66.92982116699218 154.64500183105469 Q -68.01782116699219 154.64500183105469 -68.62582116699218 153.62100183105468 Q -69.23382116699219 152.59700183105468 -69.23382116699219 151.38100183105468 Q -69.23382116699219 149.84500183105467 -68.2418211669922 148.8850018310547 Q -67.24982116699219 147.9250018310547 -65.26582116699218 147.9250018310547 Q -63.15382116699219 147.9250018310547 -62.19382116699219 149.4930018310547 Q -61.233821166992186 151.06100183105468 -61.233821166992186 153.4930018310547 Q -61.233821166992186 159.2530018310547 -63.21782116699219 165.8130018310547 Q -65.20182116699219 172.3730018310547 -69.29782116699218 176.9810018310547 Q -73.39382116699218 181.58900183105467 -79.47382116699218 181.58900183105467 Z M -51.11697048950195 181.58900183105467 Q -55.852970489501956 181.58900183105467 -58.47697048950195 179.12500183105467 Q -61.100970489501954 176.66100183105468 -61.100970489501954 171.4130018310547 Q -61.100970489501954 166.9970018310547 -59.37297048950195 161.68500183105468 Q -57.64497048950195 156.3730018310547 -53.740970489501954 152.50100183105468 Q -49.83697048950195 148.6290018310547 -43.82097048950195 148.6290018310547 Q -36.780970489501954 148.6290018310547 -36.780970489501954 154.77300183105467 Q -36.780970489501954 158.35700183105467 -38.828970489501955 161.36500183105468 Q -40.87697048950196 164.3730018310547 -44.26897048950195 166.19700183105468 Q -47.66097048950195 168.0210018310547 -51.50097048950195 168.2770018310547 Q -51.62897048950195 170.19700183105468 -51.62897048950195 170.8370018310547 Q -51.62897048950195 173.9730018310547 -50.54097048950195 175.0930018310547 Q -49.45297048950195 176.2130018310547 -47.02097048950195 176.2130018310547 Q -43.56497048950195 176.2130018310547 -41.100970489501954 174.61300183105467 Q -38.63697048950195 173.01300183105468 -35.69297048950195 169.7490018310547 L -33.51697048950196 169.7490018310547 Q -40.62097048950196 181.58900183105467 -51.11697048950195 181.58900183105467 Z M -50.98897048950195 165.2050018310547 Q -48.62097048950196 165.0770018310547 -46.47697048950195 163.5410018310547 Q -44.33297048950195 162.0050018310547 -43.02097048950195 159.63700183105468 Q -41.70897048950195 157.26900183105468 -41.70897048950195 154.64500183105469 Q -41.70897048950195 152.0210018310547 -43.30897048950195 152.0210018310547 Q -45.612970489501954 152.0210018310547 -47.82097048950195 156.0530018310547 Q -50.02897048950195 160.08500183105468 -50.98897048950195 165.2050018310547 Z M -31.345864532470703 149.2050018310547 L -22.129864532470705 149.2050018310547 L -22.961864532470702 153.17300183105468 Q -20.785864532470704 151.2530018310547 -19.025864532470703 150.2290018310547 Q -17.2658645324707 149.2050018310547 -15.217864532470703 149.2050018310547 Q -13.169864532470704 149.2050018310547 -11.985864532470703 150.61300183105467 Q -10.801864532470702 152.0210018310547 -10.801864532470702 154.0050018310547 Q -10.801864532470702 155.8610018310547 -12.017864532470703 157.26900183105468 Q -13.233864532470701 158.6770018310547 -15.409864532470703 158.6770018310547 Q -16.817864532470704 158.6770018310547 -17.2978645324707 158.0050018310547 Q -17.7778645324707 157.33300183105467 -18.0338645324707 156.0530018310547 Q -18.225864532470702 155.22100183105468 -18.417864532470702 154.8370018310547 Q -18.609864532470702 154.45300183105468 -19.121864532470703 154.45300183105468 Q -20.465864532470704 154.45300183105468 -21.3938645324707 154.9970018310547 Q -22.321864532470705 155.5410018310547 -23.793864532470703 156.8850018310547 L -28.913864532470704 181.2050018310547 L -38.129864532470705 181.2050018310547 Z M -4.338591102600097 181.58900183105467 Q -7.4105911026000975 181.58900183105467 -9.522591102600098 180.40500183105468 Q -11.634591102600098 179.22100183105468 -12.658591102600099 177.33300183105467 Q -13.682591102600098 175.4450018310547 -13.682591102600098 173.3970018310547 Q -13.682591102600098 171.2850018310547 -12.690591102600099 169.7170018310547 Q -11.698591102600098 168.14900183105468 -10.290591102600098 167.4450018310547 Q -7.794591102600098 162.96500183105468 -5.938591102600098 158.38900183105468 Q -4.082591102600097 153.8130018310547 -2.4185911026000966 148.50100183105468 L 7.053408897399901 147.22100183105468 Q 7.3734088973999015 155.4130018310547 8.141408897399902 164.9490018310547 Q 8.461408897399902 168.7890018310547 8.461408897399902 170.5170018310547 Q 8.461408897399902 174.4210018310547 6.477408897399904 176.91700183105468 Q 4.4934088973999025 179.4130018310547 1.5814088973999034 180.50100183105468 Q -1.3305911026000974 181.58900183105467 -4.338591102600097 181.58900183105467 Z M -6.386591102600097 176.5330018310547 Q -4.018591102600097 176.5330018310547 -2.4185911026000966 175.12500183105467 Q -0.8185911026000969 173.7170018310547 -0.8185911026000969 170.5810018310547 Q -0.8185911026000969 168.66100183105468 -1.2025911026000973 165.2050018310547 Q -1.8425911026000978 157.9090018310547 -2.034591102600098 155.4130018310547 Q -3.5705911026000976 160.4690018310547 -7.218591102600097 167.5090018310547 Q -5.746591102600098 168.2770018310547 -5.746591102600098 169.7490018310547 Q -5.746591102600098 170.96500183105468 -6.546591102600098 171.9250018310547 Q -7.346591102600097 172.8850018310547 -8.562591102600098 172.8850018310547 Q -9.906591102600098 172.8850018310547 -10.290591102600098 172.0530018310547 Q -10.290591102600098 174.35700183105467 -9.362591102600097 175.4450018310547 Q -8.434591102600098 176.5330018310547 -6.386591102600097 176.5330018310547 Z M 30.155881576538086 181.58900183105467 Q 26.507881576538086 181.58900183105467 24.075881576538087 179.0930018310547 Q 21.643881576538085 176.59700183105468 21.643881576538085 171.2850018310547 Q 21.643881576538085 166.54900183105468 23.531881576538087 161.33300183105467 Q 25.419881576538085 156.1170018310547 29.163881576538085 152.50100183105468 Q 32.90788157653809 148.8850018310547 38.091881576538086 148.8850018310547 Q 40.71588157653809 148.8850018310547 41.99588157653808 149.78100183105468 Q 43.27588157653808 150.6770018310547 43.27588157653808 152.14900183105468 L 43.27588157653808 152.59700183105468 L 43.97988157653809 149.2050018310547 L 53.195881576538085 149.2050018310547 L 48.58788157653809 170.96500183105468 Q 48.33188157653809 171.9250018310547 48.33188157653809 173.01300183105468 Q 48.33188157653809 175.7650018310547 50.95588157653809 175.7650018310547 Q 52.74788157653809 175.7650018310547 54.05988157653809 174.10100183105467 Q 55.37188157653809 172.4370018310547 56.13988157653809 169.7490018310547 L 58.82788157653809 169.7490018310547 Q 56.45988157653809 176.66100183105468 52.97188157653809 179.12500183105467 Q 49.48388157653808 181.58900183105467 45.963881576538085 181.58900183105467 Q 43.27588157653808 181.58900183105467 41.643881576538085 180.08500183105468 Q 40.01188157653809 178.5810018310547 39.69188157653809 175.7010018310547 Q 37.835881576538085 178.3250018310547 35.56388157653809 179.9570018310547 Q 33.29188157653809 181.58900183105467 30.155881576538086 181.58900183105467 Z M 34.31588157653809 175.38100183105468 Q 35.915881576538084 175.38100183105468 37.48388157653809 173.87700183105468 Q 39.05188157653809 172.3730018310547 39.62788157653809 169.7490018310547 L 42.69988157653809 155.28500183105467 Q 42.69988157653809 154.45300183105468 42.05988157653809 153.6530018310547 Q 41.41988157653809 152.85300183105468 40.07588157653809 152.85300183105468 Q 37.515881576538085 152.85300183105468 35.46788157653809 155.82900183105468 Q 33.41988157653809 158.80500183105468 32.26788157653809 162.9970018310547 Q 31.115881576538087 167.1890018310547 31.115881576538087 170.38900183105468 Q 31.115881576538087 173.58900183105467 32.043881576538084 174.4850018310547 Q 32.97188157653809 175.38100183105468 34.31588157653809 175.38100183105468 Z M 79.24502935791016 181.58900183105467 Q 75.34102935791016 181.58900183105467 73.51702935791016 179.5090018310547 Q 71.69302935791015 177.42900183105468 71.69302935791015 174.35700183105467 Q 71.69302935791015 173.01300183105468 72.01302935791016 171.31700183105468 Q 72.33302935791016 169.62100183105468 72.68502935791015 168.0210018310547 Q 73.03702935791016 166.4210018310547 73.16502935791016 165.9730018310547 Q 73.67702935791016 163.73300183105468 74.12502935791017 161.5570018310547 Q 74.57302935791016 159.38100183105468 74.57302935791016 158.03700183105468 Q 74.57302935791016 154.77300183105467 72.26902935791016 154.77300183105467 Q 70.60502935791015 154.77300183105467 69.32502935791015 156.40500183105468 Q 68.04502935791015 158.03700183105468 67.27702935791015 160.66100183105468 L 62.925029357910155 181.2050018310547 L 53.709029357910154 181.2050018310547 L 60.49302935791016 149.2050018310547 L 69.70902935791015 149.2050018310547 L 69.00502935791016 152.5330018310547 Q 72.20502935791015 148.9490018310547 76.49302935791016 148.9490018310547 Q 79.75702935791016 148.9490018310547 81.67702935791016 150.7410018310547 Q 83.59702935791016 152.5330018310547 83.59702935791016 156.1810018310547 Q 83.59702935791016 158.03700183105468 83.14902935791015 160.30900183105467 Q 82.70102935791016 162.5810018310547 81.86902935791016 165.84500183105467 Q 81.35702935791016 167.82900183105468 80.94102935791015 169.7170018310547 Q 80.52502935791016 171.6050018310547 80.52502935791016 172.6930018310547 Q 80.52502935791016 173.9730018310547 81.10102935791016 174.6770018310547 Q 81.67702935791016 175.38100183105468 83.08502935791016 175.38100183105468 Q 85.00502935791016 175.38100183105468 86.15702935791016 174.0050018310547 Q 87.30902935791016 172.6290018310547 88.46102935791015 169.7490018310547 L 91.14902935791017 169.7490018310547 Q 88.78102935791016 176.7890018310547 85.67702935791016 179.1890018310547 Q 82.57302935791016 181.58900183105467 79.24502935791016 181.58900183105467 Z M 96.13456695556641 181.58900183105467 Q 92.4865669555664 181.58900183105467 90.0545669555664 179.0930018310547 Q 87.62256695556641 176.59700183105468 87.62256695556641 171.2850018310547 Q 87.62256695556641 166.54900183105468 89.5105669555664 161.33300183105467 Q 91.39856695556641 156.1170018310547 95.14256695556641 152.50100183105468 Q 98.88656695556641 148.8850018310547 104.0705669555664 148.8850018310547 Q 106.69456695556642 148.8850018310547 107.9745669555664 149.78100183105468 Q 109.2545669555664 150.6770018310547 109.2545669555664 152.14900183105468 L 109.2545669555664 152.40500183105468 L 112.39056695556641 137.68500183105468 L 121.86256695556641 136.40500183105468 L 114.50256695556641 170.96500183105468 Q 114.24656695556641 171.9250018310547 114.24656695556641 172.82100183105467 Q 114.24656695556641 175.38100183105468 116.8705669555664 175.38100183105468 Q 118.0225669555664 175.38100183105468 118.9185669555664 174.9970018310547 Q 118.6625669555664 178.19700183105468 116.64656695556641 179.89300183105468 Q 114.63056695556641 181.58900183105467 111.87856695556641 181.58900183105467 Q 109.31856695556641 181.58900183105467 107.5585669555664 180.2770018310547 Q 105.7985669555664 178.96500183105468 105.2225669555664 176.2770018310547 Q 101.3825669555664 181.58900183105467 96.13456695556641 181.58900183105467 Z M 100.29456695556641 175.38100183105468 Q 101.70256695556641 175.38100183105468 103.14256695556641 174.1650018310547 Q 104.5825669555664 172.9490018310547 105.2865669555664 170.7730018310547 L 105.5425669555664 169.7490018310547 L 108.67856695556641 155.0930018310547 Q 108.1025669555664 152.85300183105468 106.0545669555664 152.85300183105468 Q 103.49456695556641 152.85300183105468 101.44656695556641 155.82900183105468 Q 99.39856695556641 158.80500183105468 98.24656695556641 162.9970018310547 Q 97.0945669555664 167.1890018310547 97.0945669555664 170.38900183105468 Q 97.0945669555664 173.58900183105467 98.0225669555664 174.4850018310547 Q 98.9505669555664 175.38100183105468 100.29456695556641 175.38100183105468 Z M 140.10355615234374 181.58900183105467 Q 137.03155615234374 181.58900183105467 134.91955615234374 180.40500183105468 Q 132.80755615234375 179.22100183105468 131.78355615234375 177.33300183105467 Q 130.75955615234375 175.4450018310547 130.75955615234375 173.3970018310547 Q 130.75955615234375 171.2850018310547 131.75155615234374 169.7170018310547 Q 132.74355615234376 168.14900183105468 134.15155615234374 167.4450018310547 Q 136.64755615234375 162.96500183105468 138.50355615234375 158.38900183105468 Q 140.35955615234374 153.8130018310547 142.02355615234376 148.50100183105468 L 151.49555615234374 147.22100183105468 Q 151.81555615234376 155.4130018310547 152.58355615234376 164.9490018310547 Q 152.90355615234375 168.7890018310547 152.90355615234375 170.5170018310547 Q 152.90355615234375 171.98900183105468 152.64755615234375 172.9490018310547 Q 155.65555615234376 171.22100183105468 157.25555615234376 169.7490018310547 L 159.94355615234375 169.7490018310547 Q 155.84755615234374 174.4850018310547 150.15155615234374 177.7490018310547 Q 148.29555615234375 179.73300183105468 145.57555615234375 180.66100183105468 Q 142.85555615234375 181.58900183105467 140.10355615234374 181.58900183105467 Z M 138.05555615234374 176.5330018310547 Q 140.42355615234376 176.5330018310547 142.02355615234376 175.12500183105467 Q 143.62355615234375 173.7170018310547 143.62355615234375 170.5810018310547 Q 143.62355615234375 168.66100183105468 143.23955615234374 165.2050018310547 Q 142.59955615234375 157.9090018310547 142.40755615234374 155.4130018310547 Q 140.87155615234374 160.4690018310547 137.22355615234375 167.5090018310547 Q 138.69555615234376 168.2770018310547 138.69555615234376 169.7490018310547 Q 138.69555615234376 170.96500183105468 137.89555615234374 171.9250018310547 Q 137.09555615234376 172.8850018310547 135.87955615234375 172.8850018310547 Q 134.53555615234376 172.8850018310547 134.15155615234374 172.0530018310547 Q 134.15155615234374 174.35700183105467 135.07955615234374 175.4450018310547 Q 136.00755615234374 176.5330018310547 138.05555615234374 176.5330018310547 Z M 180.35766210937498 181.58900183105467 Q 176.453662109375 181.58900183105467 174.629662109375 179.5090018310547 Q 172.805662109375 177.42900183105468 172.805662109375 174.35700183105467 Q 172.805662109375 173.01300183105468 173.125662109375 171.31700183105468 Q 173.445662109375 169.62100183105468 173.797662109375 168.0210018310547 Q 174.14966210937502 166.4210018310547 174.277662109375 165.9730018310547 Q 174.789662109375 163.73300183105468 175.237662109375 161.5570018310547 Q 175.68566210937502 159.38100183105468 175.68566210937502 158.03700183105468 Q 175.68566210937502 154.77300183105467 173.381662109375 154.77300183105467 Q 171.717662109375 154.77300183105467 170.437662109375 156.40500183105468 Q 169.157662109375 158.03700183105468 168.389662109375 160.66100183105468 L 164.037662109375 181.2050018310547 L 154.821662109375 181.2050018310547 L 164.101662109375 137.68500183105468 L 173.573662109375 136.40500183105468 L 170.117662109375 152.5330018310547 Q 173.317662109375 148.9490018310547 177.605662109375 148.9490018310547 Q 180.86966210937499 148.9490018310547 182.789662109375 150.7410018310547 Q 184.709662109375 152.5330018310547 184.709662109375 156.1810018310547 Q 184.709662109375 158.03700183105468 184.261662109375 160.30900183105467 Q 183.813662109375 162.5810018310547 182.981662109375 165.84500183105467 Q 182.469662109375 167.82900183105468 182.053662109375 169.7170018310547 Q 181.63766210937501 171.6050018310547 181.63766210937501 172.6930018310547 Q 181.63766210937501 173.9730018310547 182.213662109375 174.6770018310547 Q 182.789662109375 175.38100183105468 184.197662109375 175.38100183105468 Q 186.117662109375 175.38100183105468 187.269662109375 174.0050018310547 Q 188.421662109375 172.6290018310547 189.573662109375 169.7490018310547 L 192.261662109375 169.7490018310547 Q 189.893662109375 176.7890018310547 186.789662109375 179.1890018310547 Q 183.68566210937502 181.58900183105467 180.35766210937498 181.58900183105467 Z M 197.25501220703126 181.58900183105467 Q 193.60701220703126 181.58900183105467 191.17501220703124 179.0930018310547 Q 188.74301220703126 176.59700183105468 188.74301220703126 171.2850018310547 Q 188.74301220703126 166.54900183105468 190.63101220703126 161.33300183105467 Q 192.51901220703124 156.1170018310547 196.26301220703124 152.50100183105468 Q 200.00701220703124 148.8850018310547 205.19101220703124 148.8850018310547 Q 207.81501220703126 148.8850018310547 209.09501220703126 149.78100183105468 Q 210.37501220703126 150.6770018310547 210.37501220703126 152.14900183105468 L 210.37501220703126 152.59700183105468 L 211.07901220703124 149.2050018310547 L 220.29501220703125 149.2050018310547 L 215.68701220703124 170.96500183105468 Q 215.43101220703124 171.9250018310547 215.43101220703124 173.01300183105468 Q 215.43101220703124 175.7650018310547 218.05501220703124 175.7650018310547 Q 219.84701220703124 175.7650018310547 221.15901220703125 174.10100183105467 Q 222.47101220703127 172.4370018310547 223.23901220703124 169.7490018310547 L 225.92701220703125 169.7490018310547 Q 223.55901220703126 176.66100183105468 220.07101220703126 179.12500183105467 Q 216.58301220703126 181.58900183105467 213.06301220703125 181.58900183105467 Q 210.37501220703126 181.58900183105467 208.74301220703126 180.08500183105468 Q 207.11101220703125 178.5810018310547 206.79101220703126 175.7010018310547 Q 204.93501220703126 178.3250018310547 202.66301220703124 179.9570018310547 Q 200.39101220703125 181.58900183105467 197.25501220703126 181.58900183105467 Z M 201.41501220703125 175.38100183105468 Q 203.01501220703125 175.38100183105468 204.58301220703126 173.87700183105468 Q 206.15101220703124 172.3730018310547 206.72701220703124 169.7490018310547 L 209.79901220703124 155.28500183105467 Q 209.79901220703124 154.45300183105468 209.15901220703125 153.6530018310547 Q 208.51901220703124 152.85300183105468 207.17501220703124 152.85300183105468 Q 204.61501220703124 152.85300183105468 202.56701220703124 155.82900183105468 Q 200.51901220703124 158.80500183105468 199.36701220703125 162.9970018310547 Q 198.21501220703124 167.1890018310547 198.21501220703124 170.38900183105468 Q 198.21501220703124 173.58900183105467 199.14301220703126 174.4850018310547 Q 200.07101220703126 175.38100183105468 201.41501220703125 175.38100183105468 Z M 247.29634558105468 181.58900183105467 Q 243.3283455810547 181.58900183105467 241.2803455810547 179.7010018310547 Q 239.2323455810547 177.8130018310547 239.2323455810547 174.29300183105468 Q 239.2323455810547 172.75700183105468 239.6163455810547 170.96500183105468 L 240.1283455810547 168.4690018310547 Q 240.38434558105467 167.38100183105468 240.38434558105467 166.10100183105467 Q 240.38434558105467 163.0290018310547 238.0803455810547 163.0290018310547 Q 237.0563455810547 163.0290018310547 235.9363455810547 163.6050018310547 Q 234.8163455810547 164.1810018310547 233.34434558105468 165.3970018310547 L 230.01634558105468 181.2050018310547 L 220.8003455810547 181.2050018310547 L 230.0803455810547 137.68500183105468 L 239.55234558105468 136.40500183105468 L 234.7523455810547 158.9330018310547 L 247.1043455810547 149.2050018310547 L 253.4403455810547 149.2050018310547 L 240.6403455810547 158.1010018310547 Q 241.60034558105468 157.84500183105467 242.7523455810547 157.84500183105467 Q 246.2083455810547 157.84500183105467 248.0003455810547 159.9570018310547 Q 249.7923455810547 162.0690018310547 249.7923455810547 165.33300183105467 Q 249.7923455810547 166.6770018310547 249.5363455810547 167.7650018310547 L 248.83234558105468 170.96500183105468 Q 248.5123455810547 172.1170018310547 248.5123455810547 173.01300183105468 Q 248.5123455810547 175.38100183105468 251.0083455810547 175.38100183105468 Q 252.92834558105469 175.38100183105468 254.0803455810547 174.0050018310547 Q 255.2323455810547 172.6290018310547 256.3843455810547 169.7490018310547 L 259.0723455810547 169.7490018310547 Q 255.1043455810547 181.58900183105467 247.29634558105468 181.58900183105467 Z M 265.5338359375 181.58900183105467 Q 260.7978359375 181.58900183105467 258.1738359375 179.12500183105467 Q 255.5498359375 176.66100183105468 255.5498359375 171.4130018310547 Q 255.5498359375 166.9970018310547 257.2778359375 161.68500183105468 Q 259.0058359375 156.3730018310547 262.9098359375 152.50100183105468 Q 266.8138359375 148.6290018310547 272.8298359375 148.6290018310547 Q 279.8698359375 148.6290018310547 279.8698359375 154.77300183105467 Q 279.8698359375 158.35700183105467 277.8218359375 161.36500183105468 Q 275.7738359375 164.3730018310547 272.3818359375 166.19700183105468 Q 268.9898359375 168.0210018310547 265.14983593750003 168.2770018310547 Q 265.0218359375 170.19700183105468 265.0218359375 170.8370018310547 Q 265.0218359375 173.9730018310547 266.1098359375 175.0930018310547 Q 267.1978359375 176.2130018310547 269.6298359375 176.2130018310547 Q 273.0858359375 176.2130018310547 275.5498359375 174.61300183105467 Q 278.0138359375 173.01300183105468 280.9578359375 169.7490018310547 L 283.1338359375 169.7490018310547 Q 276.0298359375 181.58900183105467 265.5338359375 181.58900183105467 Z M 265.6618359375 165.2050018310547 Q 268.0298359375 165.0770018310547 270.1738359375 163.5410018310547 Q 272.3178359375 162.0050018310547 273.6298359375 159.63700183105468 Q 274.9418359375 157.26900183105468 274.9418359375 154.64500183105469 Q 274.9418359375 152.0210018310547 273.3418359375 152.0210018310547 Q 271.0378359375 152.0210018310547 268.8298359375 156.0530018310547 Q 266.6218359375 160.08500183105468 265.6618359375 165.2050018310547 Z M 285.3127543945312 149.2050018310547 L 294.52875439453123 149.2050018310547 L 293.69675439453124 153.17300183105468 Q 295.8727543945312 151.2530018310547 297.6327543945313 150.2290018310547 Q 299.39275439453127 149.2050018310547 301.44075439453127 149.2050018310547 Q 303.48875439453127 149.2050018310547 304.67275439453124 150.61300183105467 Q 305.85675439453127 152.0210018310547 305.85675439453127 154.0050018310547 Q 305.85675439453127 155.8610018310547 304.64075439453126 157.26900183105468 Q 303.42475439453125 158.6770018310547 301.24875439453126 158.6770018310547 Q 299.84075439453125 158.6770018310547 299.3607543945312 158.0050018310547 Q 298.88075439453127 157.33300183105467 298.62475439453124 156.0530018310547 Q 298.43275439453123 155.22100183105468 298.2407543945312 154.8370018310547 Q 298.0487543945313 154.45300183105468 297.5367543945313 154.45300183105468 Q 296.1927543945313 154.45300183105468 295.2647543945312 154.9970018310547 Q 294.3367543945312 155.5410018310547 292.86475439453125 156.8850018310547 L 287.74475439453124 181.2050018310547 L 278.52875439453123 181.2050018310547 Z M 312.3200478515625 181.58900183105467 Q 309.2480478515625 181.58900183105467 307.1360478515625 180.40500183105468 Q 305.0240478515625 179.22100183105468 304.0000478515625 177.33300183105467 Q 302.9760478515625 175.4450018310547 302.9760478515625 173.3970018310547 Q 302.9760478515625 171.2850018310547 303.9680478515625 169.7170018310547 Q 304.9600478515625 168.14900183105468 306.3680478515625 167.4450018310547 Q 308.8640478515625 162.96500183105468 310.7200478515625 158.38900183105468 Q 312.5760478515625 153.8130018310547 314.2400478515625 148.50100183105468 L 323.7120478515625 147.22100183105468 Q 324.0320478515625 155.4130018310547 324.8000478515625 164.9490018310547 Q 325.1200478515625 168.7890018310547 325.1200478515625 170.5170018310547 Q 325.1200478515625 174.4210018310547 323.1360478515625 176.91700183105468 Q 321.1520478515625 179.4130018310547 318.2400478515625 180.50100183105468 Q 315.3280478515625 181.58900183105467 312.3200478515625 181.58900183105467 Z M 310.2720478515625 176.5330018310547 Q 312.6400478515625 176.5330018310547 314.2400478515625 175.12500183105467 Q 315.8400478515625 173.7170018310547 315.8400478515625 170.5810018310547 Q 315.8400478515625 168.66100183105468 315.4560478515625 165.2050018310547 Q 314.8160478515625 157.9090018310547 314.6240478515625 155.4130018310547 Q 313.0880478515625 160.4690018310547 309.4400478515625 167.5090018310547 Q 310.9120478515625 168.2770018310547 310.9120478515625 169.7490018310547 Q 310.9120478515625 170.96500183105468 310.1120478515625 171.9250018310547 Q 309.3120478515625 172.8850018310547 308.0960478515625 172.8850018310547 Q 306.7520478515625 172.8850018310547 306.3680478515625 172.0530018310547 Q 306.3680478515625 174.35700183105467 307.2960478515625 175.4450018310547 Q 308.2240478515625 176.5330018310547 310.2720478515625 176.5330018310547 Z" transform="matrix(1, 0, 0, 1, 318.86602783203125, -25.11742401123047)" style="fill: rgb(0,0,0); white-space: pre;"/>
</svg>
