<svg viewBox="10.766 -9.994 38.468 79.989" xmlns="http://www.w3.org/2000/svg" className="logo-text">
  <path d="M 38.66999884033203 55.176001251220704 Q 33.67799884033203 55.176001251220704 33.67799884033203 50.8880012512207 Q 33.67799884033203 49.4800012512207 34.093998840332034 47.6560012512207 Q 34.50999884033203 45.8320012512207 35.27799884033203 42.9520012512207 Q 36.17399884033203 39.944001251220705 36.62199884033203 37.8320012512207 Q 37.06999884033203 35.7200012512207 37.06999884033203 34.05600125122071 Q 37.06999884033203 29.704001251220703 33.22999884033203 29.704001251220703 Q 32.20599884033203 29.704001251220703 31.11799884033203 29.960001251220703 L 25.99799884033203 54.0880012512207 L 16.78199884033203 54.0880012512207 L 25.48599884033203 13.384001251220702 L 34.95799884033203 12.104001251220701 L 31.821998840332032 26.888001251220704 L 32.33399884033203 26.888001251220704 Q 34.82999884033203 26.888001251220704 36.94199884033203 25.160001251220702 Q 39.05399884033203 23.4320012512207 40.23799884033203 20.840001251220706 Q 41.42199884033204 18.2480012512207 41.42199884033204 15.752001251220705 Q 41.42199884033204 12.808001251220702 39.66199884033203 10.920001251220704 Q 37.90199884033203 9.032001251220706 34.38199884033203 9.032001251220706 Q 29.197998840332033 9.032001251220706 25.29399884033203 10.8880012512207 Q 21.389998840332034 12.744001251220702 19.24599884033203 16.264001251220705 Q 17.10199884033203 19.7840012512207 17.10199884033203 24.584001251220702 Q 17.10199884033203 26.952001251220704 17.54999884033203 27.8800012512207 Q 17.99799884033203 28.808001251220702 17.99799884033203 28.936001251220702 Q 14.541998840332031 28.936001251220702 12.845998840332031 27.4960012512207 Q 11.149998840332032 26.056001251220703 11.149998840332032 22.728001251220704 Q 11.149998840332032 18.6320012512207 14.509998840332031 14.7600012512207 Q 17.86999884033203 10.8880012512207 23.11799884033203 8.488001251220702 Q 28.365998840332033 6.088001251220703 33.61399884033203 6.088001251220703 Q 38.41399884033203 6.088001251220703 41.67799884033203 7.496001251220704 Q 44.94199884033203 8.904001251220706 46.541998840332035 11.240001251220704 Q 48.14199884033203 13.576001251220703 48.14199884033203 16.328001251220705 Q 48.14199884033203 19.3360012512207 46.285998840332034 22.344001251220703 Q 44.42999884033203 25.352001251220702 41.22999884033203 27.272001251220704 Q 43.66199884033203 27.9760012512207 44.65399884033203 29.608001251220703 Q 45.645998840332034 31.240001251220704 45.645998840332034 33.672001251220706 Q 45.645998840332034 35.5280012512207 45.19799884033203 37.6080012512207 Q 44.74999884033203 39.688001251220705 43.91799884033203 42.7600012512207 Q 43.40599884033203 44.7440012512207 42.95799884033203 46.664001251220704 Q 42.50999884033203 48.584001251220705 42.50999884033203 49.8640012512207 Q 42.50999884033203 51.3360012512207 43.181998840332035 52.4880012512207 Q 43.85399884033203 53.6400012512207 45.00599884033203 54.0880012512207 Q 41.10199884033203 55.176001251220704 38.66999884033203 55.176001251220704 Z" transform="matrix(1, 0, 0, 1, 0, 0)" style="white-space: pre;"/>
</svg>
