<?xml version="1.0" encoding="utf-8"?>
<svg viewBox="0 0 400 400" xmlns="http://www.w3.org/2000/svg">
  <path d="M 409.189 200 C 409.189 315.525 315.525 409.189 200 409.189 C 84.475 409.189 -9.188 315.525 -9.188 200 C -9.188 84.475 84.475 -9.188 200 -9.188 C 315.553 -9.188 409.189 84.475 409.189 200 Z" fill="white" style="fill-opacity: 0;"/>
  <path d="M 94.011 207.027 L 94.921 205.614 L 149.332 120.479 C 150.133 119.239 152.004 119.364 152.606 120.722 C 161.693 141.091 169.538 166.434 165.867 182.206 C 164.293 188.691 160.001 197.481 155.161 205.614 C 154.54 206.792 153.847 207.954 153.119 209.069 C 152.778 209.581 152.192 209.888 151.572 209.888 L 95.604 209.888 C 94.101 209.888 93.219 208.26 94.011 207.027 Z" style=""/>
  <path d="M 336.578 222.851 L 336.578 236.328 C 336.578 237.093 336.101 237.786 335.417 238.083 C 331.206 239.891 316.785 246.513 310.784 254.853 C 295.481 276.147 283.794 306.601 257.659 306.601 L 148.63 306.601 C 109.981 306.601 78.673 275.185 78.673 236.409 L 78.673 235.159 C 78.673 234.134 79.51 233.297 80.544 233.297 L 141.324 233.297 C 142.522 233.297 143.404 234.411 143.296 235.591 C 142.872 239.549 143.601 243.589 145.463 247.259 C 149.081 254.591 156.555 259.171 164.635 259.171 L 194.729 259.171 L 194.729 235.681 L 164.986 235.681 C 163.456 235.681 162.557 233.917 163.438 232.666 C 163.761 232.172 164.122 231.66 164.509 231.083 C 167.324 227.08 171.346 220.872 175.341 213.8 C 178.075 209.024 180.721 203.932 182.844 198.823 C 183.275 197.895 183.618 196.951 183.96 196.024 C 184.535 194.396 185.147 192.866 185.57 191.337 C 186.001 190.049 186.344 188.691 186.695 187.432 C 187.702 183.086 188.135 178.489 188.135 173.721 C 188.135 171.849 188.044 169.889 187.873 168.027 C 187.792 165.984 187.531 163.933 187.27 161.9 C 187.1 160.092 186.775 158.31 186.434 156.438 C 186.001 153.713 185.398 150.996 184.715 148.27 L 184.481 147.236 C 183.96 145.373 183.529 143.584 182.935 141.721 C 181.224 135.846 179.272 130.133 177.212 124.779 C 176.456 122.648 175.601 120.615 174.738 118.573 C 173.469 115.496 172.183 112.698 171.005 110.061 C 170.401 108.856 169.88 107.758 169.367 106.634 C 168.792 105.376 168.189 104.105 167.586 102.901 C 167.155 101.973 166.658 101.119 166.318 100.255 L 162.638 93.463 C 162.124 92.545 162.98 91.448 163.996 91.727 L 186.992 97.961 L 187.054 97.961 C 187.1 97.961 187.117 97.979 187.144 97.979 L 190.177 98.816 L 193.505 99.761 L 194.729 100.102 L 194.729 86.437 C 194.729 79.842 200.018 74.49 206.55 74.49 C 209.815 74.49 212.785 75.82 214.908 77.989 C 217.04 80.166 218.372 83.125 218.372 86.437 L 218.372 106.725 L 220.818 107.417 C 221.016 107.479 221.205 107.561 221.377 107.696 C 221.979 108.145 222.842 108.811 223.941 109.63 C 224.795 110.314 225.722 111.151 226.837 112.014 C 229.051 113.795 231.695 116.098 234.591 118.733 C 235.374 119.409 236.122 120.092 236.805 120.785 C 240.548 124.267 244.74 128.342 248.734 132.859 C 249.859 134.127 250.956 135.415 252.073 136.773 C 253.189 138.149 254.367 139.507 255.402 140.856 C 256.751 142.656 258.217 144.527 259.485 146.489 C 260.079 147.406 260.771 148.35 261.357 149.278 C 262.985 151.751 264.425 154.307 265.802 156.862 C 266.386 158.049 266.988 159.335 267.501 160.604 C 269.031 164.023 270.228 167.504 271.002 170.986 C 271.244 171.741 271.416 172.552 271.496 173.289 L 271.496 173.46 C 271.757 174.487 271.838 175.583 271.928 176.709 C 272.27 180.271 272.099 183.843 271.325 187.432 C 271.002 188.952 270.578 190.401 270.057 191.921 C 269.545 193.378 269.031 194.909 268.356 196.348 C 267.07 199.335 265.55 202.321 263.741 205.12 C 263.165 206.154 262.473 207.243 261.789 208.277 C 261.033 209.374 260.259 210.4 259.576 211.418 C 258.622 212.703 257.615 214.062 256.58 215.258 C 255.662 216.528 254.718 217.795 253.683 218.92 C 252.243 220.611 250.867 222.222 249.428 223.769 C 248.565 224.785 247.646 225.811 246.693 226.738 C 245.765 227.772 244.831 228.691 243.968 229.554 C 242.528 230.994 241.322 232.109 240.314 233.036 L 237.948 235.205 C 237.606 235.511 237.156 235.681 236.68 235.681 L 218.372 235.681 L 218.372 259.171 L 241.411 259.171 C 246.567 259.171 251.471 257.345 255.42 253.989 C 256.777 252.811 262.688 247.691 269.67 239.98 C 269.904 239.72 270.21 239.532 270.551 239.442 L 334.193 221.044 C 335.373 220.702 336.578 221.6 336.578 222.851 Z" style=""/>
</svg>