<?xml version="1.0" standalone="no"?>
<!DOCTYPE svg PUBLIC "-//W3C//DTD SVG 20010904//EN"
 "http://www.w3.org/TR/2001/REC-SVG-20010904/DTD/svg10.dtd">
<svg version="1.0" xmlns="http://www.w3.org/2000/svg"
 width="1600.000000pt" height="1600.000000pt" viewBox="0 0 1600.000000 1600.000000"
 preserveAspectRatio="xMidYMid meet">
<metadata>
Created by potrace 1.14, written by Peter Selinger 2001-2017
</metadata>
<g transform="translate(0.000000,1600.000000) scale(0.100000,-0.100000)"
fill="#000000" stroke="none">
<path d="M8360 13003 c-763 -19 -1544 -216 -2265 -568 -946 -463 -1689 -1187
-1984 -1932 -113 -287 -164 -550 -164 -848 0 -288 32 -444 131 -640 118 -235
378 -412 705 -479 125 -26 304 -46 412 -46 95 0 104 2 98 18 -3 9 -28 66 -55
126 -81 179 -104 298 -115 591 -25 723 160 1393 526 1900 428 593 1016 986
1776 1185 338 88 564 114 929 107 334 -6 517 -35 753 -118 428 -151 736 -512
829 -972 24 -121 29 -364 9 -497 -40 -273 -94 -442 -222 -693 -221 -436 -577
-801 -957 -983 -205 -98 -345 -133 -560 -141 -142 -5 -148 -5 -143 13 11 34
596 2788 593 2790 0 1 -289 -38 -641 -86 -352 -48 -770 -105 -928 -126 -158
-21 -293 -41 -299 -45 -5 -4 -156 -688 -334 -1520 -594 -2772 -1394 -6522
-1394 -6530 0 -5 409 -9 909 -9 858 0 910 1 915 18 3 9 238 1102 522 2427 283
1326 516 2411 517 2412 25 24 652 43 789 24 274 -40 509 -161 651 -337 210
-259 309 -567 337 -1049 43 -740 -143 -1584 -449 -2042 -111 -166 -231 -276
-384 -352 -141 -70 -215 -85 -412 -85 -198 -1 -269 15 -417 91 -113 58 -198
123 -329 250 l-107 104 -35 -103 c-79 -227 -102 -328 -118 -508 -33 -366 74
-656 300 -809 276 -188 700 -277 1150 -242 351 27 607 97 891 242 211 107 361
220 554 414 421 426 710 924 891 1540 281 955 308 1743 80 2350 -203 543 -537
883 -1035 1053 -63 21 -154 47 -202 57 -49 10 -88 21 -88 25 0 4 39 31 88 60
212 129 499 380 654 572 259 321 429 705 489 1103 17 113 17 442 0 550 -63
397 -228 722 -510 1006 -380 382 -927 623 -1596 703 -142 18 -482 37 -585 34
-36 -1 -112 -3 -170 -5z"/>
</g>
</svg>
